<svg width="51" height="42" viewBox="0 0 51 42" fill="none" xmlns="http://www.w3.org/2000/svg">
<path d="M49.7098 7.53852C49.2749 7.53852 48.985 7.82846 48.985 8.26336V34.0675H30.4292L30.1392 33.4877C30.5741 33.0528 30.8641 32.6179 31.154 32.183H42.8964C43.3313 32.183 43.6212 31.893 43.6212 31.4581V30.4434C43.6212 29.5736 44.346 28.8487 45.2158 28.8487H46.2306C46.6655 28.8487 46.9554 28.5588 46.9554 28.1239V7.39356C46.9554 6.95865 46.6655 6.66872 46.2306 6.66872H45.2158C44.346 6.66872 43.6212 5.94388 43.6212 5.07408V4.05931C43.6212 3.62441 43.3313 3.33447 42.8964 3.33447H15.9325C15.4975 3.33447 15.2076 3.62441 15.2076 4.05931C15.2076 4.49421 15.4975 4.78415 15.9325 4.78415H42.1715V5.07408C42.1715 6.81369 43.6212 8.11839 45.2158 8.11839H45.5058V27.2541H45.2158C43.4762 27.2541 42.1715 28.7037 42.1715 30.2984V30.5883H31.7339C31.8789 30.0085 32.0238 29.4286 32.0238 28.7037C32.0238 25.0796 28.9795 22.0353 25.3553 22.0353C21.7311 22.0353 18.6868 25.0796 18.6868 28.7037C18.6868 29.2836 18.8318 30.0085 18.9768 30.5883H8.68409V30.4434C8.68409 28.7037 7.23441 27.399 5.63977 27.399H5.34984V8.11839H5.63977C7.37938 8.11839 8.68409 6.66872 8.68409 5.07408V4.78415H12.5982C13.0331 4.78415 13.323 4.49421 13.323 4.05931C13.323 3.62441 13.0331 3.33447 12.5982 3.33447H7.95925C7.52435 3.33447 7.23441 3.62441 7.23441 4.05931V5.07408C7.23441 5.94388 6.50958 6.66872 5.63977 6.66872H4.625C4.1901 6.66872 3.90017 6.95865 3.90017 7.39356V27.9789C3.90017 28.4138 4.1901 28.7037 4.625 28.7037H5.63977C6.50958 28.7037 7.23441 29.4286 7.23441 30.2984V31.3132C7.23441 31.7481 7.52435 32.038 7.95925 32.038H19.7016C19.9915 32.4729 20.2815 33.0528 20.7164 33.3427L20.4264 33.9226H2.01559V27.9789C2.01559 27.544 1.72566 27.2541 1.29075 27.2541C0.855853 27.2541 0.565918 27.689 0.565918 28.1239V34.7924C0.565918 35.2273 0.855853 35.5172 1.29075 35.5172H19.5566L17.962 38.2716C17.817 38.4166 17.817 38.7065 17.817 38.8515C17.817 38.9964 17.962 39.1414 18.107 39.2864L21.4412 41.3159C21.5862 41.3159 21.7311 41.4609 21.8761 41.4609C22.166 41.4609 22.311 41.3159 22.456 41.026L25.2104 36.0971L27.9647 41.026C28.1097 41.1709 28.2547 41.3159 28.3996 41.3159H28.5446C28.6896 41.3159 28.8345 41.3159 28.9795 41.1709L32.3138 39.1414C32.6037 38.9964 32.7487 38.5615 32.6037 38.1266L31.009 35.3722H49.2749C49.7098 35.3722 49.9998 35.0823 49.9998 34.6474V8.26336C50.4347 7.82846 49.9998 7.53852 49.7098 7.53852ZM25.5003 23.6299C28.3996 23.6299 30.7191 25.9494 30.7191 28.8487C30.7191 31.7481 28.3996 34.0675 25.5003 34.0675C22.6009 34.0675 20.2815 31.7481 20.2815 28.8487C20.2815 25.9494 22.6009 23.6299 25.5003 23.6299ZM21.7311 39.5763L19.5566 38.2716L21.8761 34.3575C22.6009 34.7924 23.3258 35.0823 24.1956 35.2273L21.7311 39.5763ZM29.1245 39.5763L26.66 35.3722C27.5298 35.2273 28.2547 34.9373 28.9795 34.5024L31.299 38.4166L29.1245 39.5763Z" fill="#595959"/>
<path d="M49.7096 0H1.29051C0.855608 0 0.565674 0.289935 0.565674 0.724836V24.6444C0.565674 25.0793 0.855608 25.3693 1.29051 25.3693C1.72541 25.3693 2.01535 25.0793 2.01535 24.6444V1.44967H48.9847V4.78392C48.9847 5.21882 49.2747 5.50876 49.7096 5.50876C50.1445 5.50876 50.4344 5.21882 50.4344 4.78392V0.724836C50.4344 0.289935 49.9995 0 49.7096 0Z" fill="#595959"/>
<path d="M25.5 32.1827C27.2396 32.1827 28.8343 30.733 28.8343 28.8484C28.8343 26.9638 27.3846 25.5142 25.5 25.5142C23.6154 25.5142 22.1658 26.9638 22.1658 28.8484C22.1658 30.588 23.6154 32.1827 25.5 32.1827ZM25.5 26.9638C26.5148 26.9638 27.3846 27.8336 27.3846 28.8484C27.3846 29.8632 26.5148 30.733 25.5 30.733C24.4852 30.733 23.6154 29.8632 23.6154 28.8484C23.6154 27.8336 24.4852 26.9638 25.5 26.9638Z" fill="#595959"/>
<path d="M31.4442 11.1624C31.8791 11.1624 32.1691 10.8725 32.1691 10.4376V7.24827C32.1691 6.81337 31.8791 6.52344 31.4442 6.52344H19.7019C19.267 6.52344 18.9771 6.81337 18.9771 7.24827V10.4376C18.9771 10.8725 19.267 11.1624 19.7019 11.1624H31.4442ZM20.2818 7.97311H30.5744V9.71272H20.2818V7.97311Z" fill="#595959"/>
<path d="M11.0037 16.6711C11.0037 17.106 11.2936 17.396 11.7285 17.396H39.2723C39.7072 17.396 39.9971 17.106 39.9971 16.6711C39.9971 16.2362 39.7072 15.9463 39.2723 15.9463H11.7285C11.2936 15.9463 11.0037 16.2362 11.0037 16.6711Z" fill="#595959"/>
<path d="M14.9175 13.4822C14.9175 13.9171 15.2074 14.207 15.6423 14.207H35.3579C35.7928 14.207 36.0827 13.9171 36.0827 13.4822C36.0827 13.0473 35.6478 12.7573 35.3579 12.7573H15.6423C15.2074 12.7573 14.9175 13.0473 14.9175 13.4822Z" fill="#595959"/>
<path d="M39.2723 19.1357H11.7285C11.2936 19.1357 11.0037 19.4257 11.0037 19.8606C11.0037 20.2955 11.2936 20.5854 11.7285 20.5854H39.2723C39.7072 20.5854 39.9971 20.2955 39.9971 19.8606C39.9971 19.4257 39.7072 19.1357 39.2723 19.1357Z" fill="#595959"/>
<path d="M15.0625 25.2243C15.4974 25.3692 15.9323 25.2243 16.2222 24.9343L16.5121 24.6444C16.5121 24.9343 16.8021 25.2243 17.237 25.2243C17.6719 25.2243 17.9618 24.9343 17.9618 24.4994V23.7746C17.9618 23.3397 17.6719 22.9048 17.237 22.7598C16.8021 22.6149 16.3672 22.7598 16.0772 23.0498L15.7873 23.3397V23.1947C15.7873 22.7598 15.4974 22.3249 15.0625 22.18C14.6276 22.035 14.1927 22.035 13.9027 22.4699L11.1484 25.2243C10.8584 25.5142 10.8584 25.9491 11.1484 26.239C11.2933 26.384 11.4383 26.384 11.7282 26.384C11.8732 26.384 12.1631 26.384 12.3081 26.239L14.4826 24.0645V24.2095C14.4826 24.6444 14.6276 25.0793 15.0625 25.2243Z" fill="#595959"/>
<path d="M37.0976 25.2243C37.5325 25.3692 37.9674 25.2243 38.2574 24.9343L38.5473 24.6444C38.5473 24.9343 38.8372 25.2243 39.2721 25.2243C39.707 25.2243 39.997 24.9343 39.997 24.4994V23.7746C39.997 23.3397 39.707 22.9048 39.2721 22.7598C38.8372 22.6149 38.4023 22.7598 38.1124 23.0498L37.8225 23.3397V23.1947C37.8225 22.7598 37.5325 22.3249 37.0976 22.18C36.6627 22.035 36.2278 22.035 35.9379 22.4699L33.1835 25.2243C32.8936 25.5142 32.8936 25.9491 33.1835 26.239C33.3285 26.384 33.4734 26.384 33.7634 26.384C34.0533 26.384 34.1983 26.384 34.3433 26.239L36.5178 24.0645V24.2095C36.3728 24.6444 36.6627 25.0793 37.0976 25.2243Z" fill="#595959"/>
</svg>
