<svg width="54" height="54" viewBox="0 0 54 54" fill="none" xmlns="http://www.w3.org/2000/svg">
<path d="M40.8564 4.49592C41.2913 4.49592 41.5812 4.20599 41.5812 3.77109C41.5812 2.75632 39.9866 2.75632 39.9866 3.77109C39.9866 4.06102 40.4215 4.49592 40.8564 4.49592Z" fill="white"/>
<path d="M36.7974 4.49578C36.6524 4.06087 36.0726 4.06087 35.7826 4.20584C35.3477 4.35081 35.3477 4.93068 35.4927 5.22061C35.7826 5.51055 36.2175 5.80048 36.5075 5.51055C36.9424 5.36558 37.0873 4.93068 36.7974 4.49578Z" fill="white"/>
<path d="M33.173 7.68502C32.7381 7.39509 32.3032 7.54005 32.1582 7.97496C32.0133 8.40986 32.0133 8.84476 32.4482 8.98973C32.7381 9.27966 33.173 9.13469 33.4629 8.69979C33.6079 8.40986 33.4629 7.82999 33.173 7.68502Z" fill="white"/>
<path d="M31.4335 12.1792C30.9986 12.1792 30.5637 12.4691 30.5637 12.904C30.5637 13.3389 30.9986 13.7738 31.4335 13.6289C32.4483 13.7738 32.4483 12.3242 31.4335 12.1792Z" fill="white"/>
<path d="M48.5394 18.4126C48.9743 18.5576 49.4092 18.5576 49.5542 18.1227C49.6991 17.6878 49.6991 17.2529 49.2642 17.1079C48.8293 16.963 48.3944 16.963 48.2495 17.3979C47.9595 17.6878 48.1045 18.1227 48.5394 18.4126Z" fill="white"/>
<path d="M49.4094 13.049C49.4094 13.4839 49.6994 13.7738 50.1343 13.7738C51.149 13.7738 51.149 12.1792 50.1343 12.1792C49.6994 12.1792 49.4094 12.6141 49.4094 13.049Z" fill="white"/>
<path d="M48.8293 9.13476C48.9743 9.13476 49.1193 9.13476 49.2642 8.9898C49.6991 8.84483 49.6991 8.26496 49.5542 7.97502C49.4092 7.54012 48.8293 7.54012 48.5394 7.68509C48.1045 7.83006 47.9595 8.40993 48.2495 8.69986C48.3944 8.9898 48.6844 9.13476 48.8293 9.13476Z" fill="white"/>
<path d="M45.0604 5.65557C45.4953 5.9455 45.9302 5.65557 46.0752 5.36563C46.2202 4.93073 46.2202 4.49583 45.7853 4.35086C45.3504 4.20589 44.9155 4.20589 44.7705 4.6408C44.6255 4.93073 44.7705 5.36563 45.0604 5.65557Z" fill="white"/>
<path d="M45.2057 13.049C45.2057 12.6141 44.9158 12.3241 44.4809 12.3241H41.7265V7.10532C41.7265 6.09055 40.1318 6.09055 40.1318 7.10532V13.049C40.1318 13.4839 40.4218 13.7738 40.8567 13.7738H44.4809C44.7708 13.7738 45.2057 13.4839 45.2057 13.049Z" fill="white"/>
<path d="M10.7035 25.8061L13.0229 23.4866C13.7478 22.7618 12.588 21.6021 11.8632 22.3269L9.54372 24.6464C8.81888 25.5162 9.83365 26.6759 10.7035 25.8061Z" fill="white"/>
<path d="M16.6471 22.3269L9.54369 29.4303C8.81886 30.1551 9.97859 31.3149 10.7034 30.59L17.8068 23.4866C18.3867 22.7618 17.3719 21.6021 16.6471 22.3269Z" fill="white"/>
<path d="M53.1786 30.0101C52.8887 28.8504 51.439 29.7202 50.8592 30.0101C50.4243 27.4007 49.5544 25.0812 48.8296 23.3416C58.5424 15.8033 53.1786 0.146847 40.8564 0.00188019C32.4483 -0.143087 26.0697 8.12005 28.2443 16.0932H6.20923C4.61459 16.0932 3.30989 17.398 3.30989 18.9926V23.0517C3.30989 23.4866 3.59982 23.7765 4.03472 23.7765C4.46962 23.7765 4.75956 23.4866 4.75956 23.0517V18.9926C4.75956 18.2678 5.33943 17.6879 6.06426 17.6879H39.6967C40.4215 17.6879 41.0014 18.2678 41.0014 18.9926V26.096C41.0014 26.096 41.0014 26.096 41.0014 26.241C40.2765 25.5161 39.6967 25.0812 39.5517 24.9363V20.1523C39.5517 19.7174 39.2618 19.4275 38.8269 19.4275H7.224C6.7891 19.4275 6.49917 19.7174 6.49917 20.1523V38.9981H4.90453V27.5457C4.90453 27.1108 4.61459 26.8208 4.17969 26.8208C3.74479 26.8208 3.30989 27.1108 3.30989 27.5457V38.8531H2.44008C1.13538 38.8531 0.120605 39.8679 0.120605 41.1726C0.120605 42.4773 1.13538 43.4921 2.44008 43.4921H36.6524C37.2322 44.7968 37.9571 45.5216 38.247 45.9565V48.7109C38.247 51.4653 40.5665 53.7847 43.3209 53.7847H45.6403C48.3947 53.7847 50.7142 51.4653 50.7142 48.7109V45.9565C51.584 44.9417 52.1639 43.782 52.7437 42.4773C53.0337 41.6075 51.584 40.8827 51.2941 41.8974C50.8592 43.0572 50.2793 44.0719 49.5544 44.9417H44.4806C44.1907 39.433 46.3652 33.4893 51.8739 31.3148C52.1639 32.6195 52.4538 35.2289 52.1639 38.1283C52.0189 39.143 53.6135 39.288 53.7585 38.2732C54.1934 33.9242 53.3236 30.1551 53.1786 30.0101ZM39.8416 16.0932H29.8389C27.6644 8.98985 33.3181 1.45155 40.8564 1.59652C51.584 1.59652 56.3679 15.0785 48.2497 21.8919C47.235 19.7174 46.2202 18.5577 46.2202 18.5577C45.9303 18.1228 45.2054 18.1228 44.9155 18.5577C44.0457 19.7174 43.3209 21.0221 42.741 22.3268V19.1376C42.741 17.398 41.4363 16.0932 39.8416 16.0932ZM7.94884 20.8772H37.9571V25.951C36.5074 28.7054 35.4926 31.4598 35.2027 34.0692C34.9128 35.8088 34.9128 37.4034 35.2027 38.9981H7.94884V20.8772ZM2.44008 41.8974C1.42531 41.8974 1.42531 40.4478 2.44008 40.4478H35.4926C35.6376 40.8827 35.7826 41.4625 35.9275 41.8974H2.44008ZM49.1195 46.3914V48.7109C49.1195 50.5955 47.5249 52.1901 45.6403 52.1901H43.3209C41.4363 52.1901 39.8416 50.5955 39.8416 48.7109V46.3914H49.1195ZM43.4658 38.9981C42.886 41.4625 42.741 43.782 42.886 44.9417H39.4067C35.6376 40.4478 35.7826 32.9095 39.2618 26.8208C40.5665 27.9806 43.1759 30.8799 44.6256 36.0987C44.1907 36.8236 43.7558 37.8383 43.4658 38.9981ZM45.7853 34.0692C44.7705 31.1698 43.4658 28.9953 42.3061 27.5457C43.0309 24.9363 44.0457 22.4718 45.4954 20.2973C46.5101 21.8919 48.5397 25.5161 49.4095 30.7349C47.9598 31.6047 46.6551 32.7645 45.7853 34.0692Z" fill="white"/>
</svg>
