<svg width="49" height="49" viewBox="0 0 49 49" fill="none" xmlns="http://www.w3.org/2000/svg">
<path d="M32.3286 17.2509C32.7289 17.2509 33.0534 16.9264 33.0534 16.5261C33.0534 16.1258 32.7289 15.8013 32.3286 15.8013C31.9283 15.8013 31.6038 16.1258 31.6038 16.5261C31.6038 16.9264 31.9283 17.2509 32.3286 17.2509Z" fill="white"/>
<path d="M35.2278 17.2509C35.6281 17.2509 35.9526 16.9264 35.9526 16.5261C35.9526 16.1258 35.6281 15.8013 35.2278 15.8013C34.8274 15.8013 34.5029 16.1258 34.5029 16.5261C34.5029 16.9264 34.8274 17.2509 35.2278 17.2509Z" fill="white"/>
<path d="M29.5735 17.2509C29.9738 17.2509 30.2983 16.9264 30.2983 16.5261C30.2983 16.1258 29.9738 15.8013 29.5735 15.8013C29.1732 15.8013 28.8486 16.1258 28.8486 16.5261C28.8486 16.9264 29.1732 17.2509 29.5735 17.2509Z" fill="white"/>
<path d="M48.4198 31.023C46.8252 30.2982 45.3755 28.9935 44.6506 27.3988C47.405 24.3545 48.8547 20.4404 48.8547 16.5263C48.8547 7.39333 41.4614 0 32.3284 0C24.3552 0 17.5418 5.65372 16.2371 13.482C16.2371 13.9169 16.382 14.2068 16.8169 14.3518C17.2518 14.3518 17.5418 14.2068 17.6867 13.7719C18.8465 6.66849 25.0801 1.44967 32.3284 1.44967C40.5916 1.44967 47.405 8.26313 47.405 16.5263C47.405 20.4404 45.9553 24.0646 43.3459 26.8189C43.201 26.9639 43.056 27.2538 43.201 27.5438C43.7808 29.1384 44.9406 30.4431 46.2453 31.4579C45.9553 31.4579 45.6654 31.4579 45.2305 31.4579C43.4909 31.4579 41.8963 30.878 40.5916 29.5733C40.3016 29.4284 40.0117 29.2834 39.7218 29.4284C38.2721 30.2982 36.6774 30.878 35.0828 31.168C34.6479 31.168 34.5029 31.6029 34.5029 32.0378C34.5029 32.4727 34.9378 32.6176 35.3727 32.6176C36.9674 32.3277 38.562 31.7478 40.0117 31.023C41.4614 32.1827 43.3459 32.9076 45.2305 32.9076C46.2453 32.9076 47.405 32.7626 48.4198 32.3277C48.7097 32.1827 48.8547 31.8928 48.8547 31.6029C48.8547 31.3129 48.7097 31.168 48.4198 31.023Z" fill="white"/>
<path d="M18.1216 31.7479C18.2666 31.4579 18.4115 31.023 18.4115 30.5881C18.4115 29.4284 17.5417 28.5586 16.382 28.5586H14.7873C14.3524 28.5586 14.0625 28.8485 14.0625 29.2834V34.9372C14.0625 35.0821 14.2075 35.3721 14.2075 35.3721C14.3524 35.517 14.4974 35.517 14.6424 35.517C14.6424 35.517 16.237 35.517 16.5269 35.517C17.8316 35.517 18.8464 34.5023 18.8464 33.1975C18.9914 32.7626 18.7015 32.1828 18.1216 31.7479ZM15.5122 30.1532H16.5269C16.8169 30.1532 17.1068 30.4432 17.1068 30.7331C17.1068 31.023 16.8169 31.313 16.5269 31.313H15.6571V30.1532H15.5122ZM16.8169 34.3573C16.5269 34.3573 16.092 34.3573 15.5122 34.3573V32.7626H16.8169C17.2518 32.7626 17.6867 33.1975 17.6867 33.6324C17.5417 33.9224 17.2518 34.3573 16.8169 34.3573Z" fill="white"/>
<path d="M10.583 29.1385C10.4381 28.8485 10.1481 28.5586 9.8582 28.5586C9.56826 28.5586 9.27833 28.7036 9.13336 29.1385L6.81388 34.7922C6.66892 35.2271 6.81388 35.517 7.24879 35.662C7.68369 35.807 7.97362 35.662 8.11859 35.2271L8.40852 34.3573H10.873L11.1629 35.2271C11.3079 35.662 11.7428 35.807 12.0327 35.662C12.4676 35.517 12.6126 35.0821 12.4676 34.7922L10.583 29.1385ZM8.98839 32.9076L9.71323 31.023L10.4381 32.9076H8.98839Z" fill="white"/>
<path d="M26.2396 33.7775C25.9496 33.4876 25.5147 33.6326 25.2248 33.9225L25.0798 34.0675C24.7899 34.3574 24.355 34.5024 23.9201 34.5024C22.7603 34.5024 21.7456 33.4876 21.7456 32.3278C21.7456 31.1681 22.7603 30.1533 23.9201 30.1533C24.355 30.1533 24.7899 30.2983 25.0798 30.5882C25.3698 30.8782 25.8047 30.7332 26.0946 30.4433C26.3845 30.1533 26.2396 29.7184 25.9496 29.4285C25.3698 28.9936 24.6449 28.8486 23.9201 28.8486C21.8905 28.8486 20.2959 30.4433 20.2959 32.4728C20.2959 34.5024 21.8905 36.097 23.9201 36.097C24.6449 36.097 25.3698 35.8071 25.9496 35.3722C26.0946 34.9373 26.2396 34.7923 26.2396 34.7923C26.5295 34.3574 26.5295 33.9225 26.2396 33.7775Z" fill="white"/>
<path d="M16.6718 15.8013C7.53884 15.8013 0.145508 23.1946 0.145508 32.1826C0.145508 36.2417 1.59518 40.1558 4.34956 43.0551C3.62472 44.6498 2.32002 45.9545 0.58041 46.6793C0.290475 46.8243 0.145508 47.1142 0.145508 47.4041C0.145508 47.6941 0.290475 47.984 0.58041 48.129C1.59518 48.5639 2.60995 48.7088 3.76969 48.7088C5.65426 48.7088 7.53884 47.984 8.98851 46.8243C11.308 47.984 13.9174 48.7088 16.6718 48.7088C25.8047 48.7088 33.198 41.3155 33.198 32.1826C33.198 23.0496 25.6597 15.8013 16.6718 15.8013ZM16.6718 47.2592C14.0624 47.2592 11.5979 46.5343 9.27845 45.3746C9.13348 45.3746 8.98851 45.2296 8.98851 45.2296C8.84354 45.2296 8.69858 45.2296 8.55361 45.3746C7.2489 46.5343 5.65426 47.2592 3.91466 47.2592C3.62472 47.2592 3.33479 47.2592 2.89989 47.2592C4.34956 46.2444 5.36433 44.9397 5.9442 43.3451C6.08917 43.0551 5.9442 42.7652 5.79923 42.6202C3.04485 39.7209 1.59518 36.0967 1.59518 32.1826C1.59518 23.9194 8.40864 17.106 16.6718 17.106C24.9349 17.106 31.7484 23.9194 31.7484 32.1826C31.7484 40.4457 24.9349 47.2592 16.6718 47.2592Z" fill="white"/>
</svg>
