<svg width="35" height="61" viewBox="0 0 35 61" fill="none" xmlns="http://www.w3.org/2000/svg">
<path d="M27.5753 0H7.27988C3.65569 0 0.756348 2.89935 0.756348 6.52353V54.2178C0.756348 57.8419 3.65569 60.7413 7.27988 60.7413H27.7203C31.3444 60.7413 34.2438 57.8419 34.2438 54.2178V6.52353C34.2438 2.89935 31.1995 0 27.5753 0ZM32.7941 6.37856V54.0728C32.7941 56.8272 30.4746 59.1466 27.5753 59.1466H7.27988C4.5255 59.1466 2.20602 56.8272 2.20602 54.0728V6.37856C2.20602 5.07385 2.64092 3.76915 3.65569 2.89935C4.67046 1.88457 5.97517 1.30471 7.42484 1.30471H27.7203C30.4746 1.30471 32.7941 3.62418 32.7941 6.37856Z" fill="white"/>
<path d="M30.4747 8.11808L9.74437 8.26305C9.45444 8.26305 9.1645 8.55298 9.1645 8.98789C9.1645 9.42279 9.45444 9.56775 9.74437 9.56775H29.025L19.1672 19.4255C19.0223 19.5705 19.0223 19.7155 19.0223 19.8604C19.0223 20.0054 19.0223 20.1504 19.1672 20.2953C19.3122 20.4403 19.4572 20.4403 19.6021 20.4403C19.7471 20.4403 19.8921 20.4403 20.037 20.2953L30.4747 10.1476V50.8834H4.38058V41.4606L6.98999 38.8511C7.27993 38.5612 7.27993 38.1263 6.98999 37.8364C6.70006 37.5464 6.26516 37.5464 5.97522 37.8364L4.23561 39.576V9.71272H5.39535C5.83025 9.71272 6.12019 9.42279 6.12019 8.98789C6.12019 8.69795 5.97522 8.40802 5.68529 8.26305H3.65574C3.22084 8.26305 2.93091 8.55298 2.93091 8.98789V51.7532C2.93091 52.1881 3.22084 52.4781 3.65574 52.4781H31.1995C31.6344 52.4781 31.9244 52.1881 31.9244 51.7532V8.98789C31.9244 8.84292 31.9244 8.69795 31.7794 8.55298C31.7794 8.40802 31.6344 8.26305 31.6344 8.26305C31.1995 7.82815 30.7646 7.82815 30.4747 8.11808Z" fill="white"/>
<path d="M14.0937 5.79879H20.7622C21.1971 5.79879 21.4871 5.50886 21.4871 5.07396C21.4871 4.63906 21.1971 4.34912 20.7622 4.34912H14.0937C13.6588 4.34912 13.3689 4.63906 13.3689 5.07396C13.3689 5.50886 13.6588 5.79879 14.0937 5.79879Z" fill="white"/>
<path d="M23.0813 5.65361C23.2262 5.65361 23.5162 5.65361 23.5162 5.50864C23.6612 5.36367 23.6612 5.21871 23.6612 5.07374C23.6612 4.92877 23.6612 4.7838 23.5162 4.63884C23.2262 4.3489 22.7913 4.3489 22.5014 4.63884C22.3564 4.7838 22.3564 4.92877 22.3564 5.07374C22.3564 5.21871 22.3564 5.36367 22.5014 5.50864C22.6464 5.50864 22.7913 5.65361 23.0813 5.65361Z" fill="white"/>
<path d="M12.6435 27.6888C12.9334 27.6888 12.9334 27.5438 13.0784 27.5438L17.7174 22.9049C17.8623 22.7599 17.8623 22.6149 17.8623 22.47C17.8623 22.325 17.8623 22.18 17.7174 22.0351C17.4274 21.7451 16.9925 21.7451 16.7026 22.0351L12.0636 26.674C11.7737 26.964 11.7737 27.3989 12.0636 27.6888C12.3536 27.6888 12.4985 27.6888 12.6435 27.6888Z" fill="white"/>
<path d="M8.43971 37.1116C8.58467 37.1116 8.72964 37.1116 8.87461 36.9666L22.5015 23.3397C22.7915 23.0497 22.7915 22.6148 22.5015 22.3249C22.3566 22.1799 22.2116 22.1799 22.0666 22.1799C21.9217 22.1799 21.7767 22.3249 21.6317 22.3249L8.0048 35.9518C7.71487 36.2418 7.71487 36.6767 8.0048 36.9666C8.14977 37.1116 8.29474 37.1116 8.43971 37.1116Z" fill="white"/>
<path d="M18.2977 52.7681C17.8628 52.6232 17.4279 52.6232 16.993 52.7681C16.5581 52.7681 16.4131 53.203 16.4131 53.638C16.4131 54.0729 16.848 54.2178 17.2829 54.2178C17.5729 54.2178 17.8628 54.2178 18.0078 54.2178C18.4427 54.3628 18.7326 54.5078 19.0225 54.9427C19.3125 55.3776 19.3125 55.8125 19.1675 56.2474C19.0225 56.6823 18.8776 56.9722 18.4427 57.2621C18.0078 57.5521 17.5729 57.5521 17.138 57.4071C16.2682 57.2621 15.6883 56.3923 15.9782 55.3776C15.9782 55.2326 15.9782 55.0876 15.8333 54.9427C15.6883 54.7977 15.5433 54.6527 15.3984 54.6527C15.2534 54.6527 14.9635 54.6527 14.8185 54.7977C14.6735 54.9427 14.5286 55.0876 14.5286 55.2326C14.3836 55.9574 14.5286 56.8272 14.8185 57.5521C15.2534 58.2769 15.8333 58.7118 16.7031 58.8568C16.993 59.0017 17.138 59.0017 17.4279 59.0017C18.8776 59.0017 20.0373 57.987 20.3272 56.6823C20.4722 55.9574 20.3272 55.0876 20.0373 54.3628C19.7474 53.493 19.0225 52.9131 18.2977 52.7681Z" fill="white"/>
</svg>
