<svg width="45" height="45" viewBox="0 0 45 45" fill="none" xmlns="http://www.w3.org/2000/svg">
<path d="M16.7741 27.8338C17.064 27.8338 17.209 27.6889 17.354 27.5439C17.4989 27.3989 17.6439 27.109 17.6439 26.964C17.6439 26.6741 17.4989 26.5291 17.354 26.3842C17.209 26.2392 16.9191 26.0942 16.7741 26.0942C16.4842 26.0942 16.3392 26.2392 16.1942 26.3842C16.0493 26.5291 15.9043 26.8191 15.9043 26.964C15.9043 27.254 16.0493 27.3989 16.1942 27.5439C16.3392 27.8338 16.4842 27.8338 16.7741 27.8338Z" fill="#595959"/>
<path d="M37.2143 20.4404V16.9612H38.374C39.2438 16.9612 39.9686 16.2363 39.9686 15.3665V8.55307C39.9686 7.68327 39.2438 6.95843 38.374 6.95843H33.0102C34.17 5.79869 34.7498 4.34902 34.7498 2.60941C34.7498 2.17451 34.3149 1.73961 33.88 1.73961C33.4451 1.73961 33.0102 2.17451 33.0102 2.60941C33.0102 4.20405 32.1404 5.65372 30.8357 6.37856C31.2706 5.79869 31.4156 5.07385 31.4156 4.34902C31.4156 2.02954 29.531 0 27.0666 0C25.182 0 23.4424 1.30471 23.0075 3.04431C22.2826 2.46444 21.2679 2.02954 20.2531 2.02954C19.2383 2.02954 18.2236 2.46444 17.4987 3.04431C16.9188 1.30471 15.3242 0 13.2947 0C10.9752 0 8.94565 1.88457 8.94565 4.34902C8.94565 5.07385 9.09062 5.79869 9.52552 6.37856C8.22081 5.65372 7.35101 4.20405 7.35101 2.60941C7.35101 2.17451 6.91611 1.73961 6.4812 1.73961C6.0463 1.73961 5.6114 2.17451 5.6114 2.60941C5.6114 4.34902 6.33624 5.79869 7.35101 6.95843H1.98722C1.11741 6.95843 0.392578 7.68327 0.392578 8.55307V15.2216C0.392578 16.0914 1.11741 16.8162 1.98722 16.8162H3.14696V37.9814C3.14696 39.4311 4.30669 40.5908 5.75637 40.5908H23.5873C25.7619 42.7653 28.8062 44.0701 32.1404 44.0701C38.9539 44.0701 44.6076 38.5613 44.6076 31.6029C44.4626 26.674 41.5633 22.325 37.2143 20.4404ZM24.4571 6.37856V4.34902C24.4571 2.89935 25.6169 1.73961 27.0666 1.73961C28.5162 1.73961 29.676 2.89935 29.676 4.34902C29.676 5.79869 28.5162 6.95843 27.0666 6.95843H24.4571V6.37856ZM24.4571 8.55307H38.229V15.0766H24.4571V8.55307ZM24.4571 16.9612H35.4747V19.8605C34.3149 19.5706 33.3002 19.4256 31.9954 19.4256C29.0961 19.4256 26.4867 20.4404 24.4571 22.035V16.9612ZM17.6437 6.37856C17.6437 4.92889 18.8034 3.76915 20.2531 3.76915C21.7028 3.76915 22.8625 4.92889 22.8625 6.37856V6.95843H17.6437V6.37856ZM17.6437 8.55307H22.8625V15.0766H17.6437V8.55307ZM13.2947 1.73961C14.7443 1.73961 15.9041 2.89935 15.9041 4.34902V6.37856V6.95843H13.2947C11.845 6.95843 10.6853 5.79869 10.6853 4.34902C10.6853 2.89935 11.845 1.73961 13.2947 1.73961ZM2.13219 15.2216V8.55307H15.9041V15.0766H4.01676H2.13219V15.2216ZM17.6437 38.9962V30.878C17.6437 30.4431 17.2088 30.0082 16.7739 30.0082C16.339 30.0082 15.9041 30.4431 15.9041 30.878V38.9962H5.75637C5.32147 38.9962 4.88656 38.5613 4.88656 38.1264V16.9612H15.9041V23.1948C15.9041 23.6297 16.339 24.0646 16.7739 24.0646C17.2088 24.0646 17.6437 23.6297 17.6437 23.1948V16.9612H22.8625V23.6297C20.9779 25.8042 19.8182 28.7035 19.8182 31.8928C19.8182 34.6472 20.688 37.1116 22.1377 39.1412H17.6437V38.9962ZM32.1404 42.4754C26.1968 42.4754 21.4128 37.6915 21.4128 31.7478C21.4128 25.8042 26.1968 21.0203 32.1404 21.0203C38.0841 21.0203 42.868 25.8042 42.868 31.7478C42.868 37.6915 37.9391 42.4754 32.1404 42.4754Z" fill="#595959"/>
<path d="M34.895 26.0939C34.4601 25.9489 33.8803 26.0939 33.7353 26.5288L29.0964 36.2416C28.9514 36.6765 29.0964 37.2564 29.5313 37.4014C29.6762 37.4014 29.8212 37.5463 29.9662 37.5463C30.2561 37.5463 30.546 37.4014 30.691 37.1114L35.4749 27.3986C35.4749 26.8187 35.3299 26.2389 34.895 26.0939Z" fill="#595959"/>
<path d="M29.9658 25.5143C29.3859 24.9345 28.806 24.6445 28.0812 24.6445C27.3564 24.6445 26.6315 24.9345 26.1966 25.5143C25.1819 26.5291 25.1819 28.2687 26.1966 29.4285C26.7765 30.0083 27.5013 30.2983 28.0812 30.2983C28.806 30.2983 29.5309 30.0083 29.9658 29.4285C30.9805 28.4137 30.9805 26.6741 29.9658 25.5143ZM28.6611 28.2687C28.2262 28.7036 27.6463 28.7036 27.2114 28.2687C26.7765 27.8338 26.7765 27.2539 27.2114 26.819C27.3564 26.6741 27.6463 26.5291 27.9362 26.5291C28.2262 26.5291 28.5161 26.6741 28.6611 26.819C29.096 27.2539 29.096 27.8338 28.6611 28.2687Z" fill="#595959"/>
<path d="M34.4601 33.9222C33.4453 34.937 33.4453 36.6766 34.4601 37.8363C35.0399 38.4162 35.6198 38.7061 36.3446 38.7061C37.0695 38.7061 37.7943 38.4162 38.2292 37.8363C39.244 36.8216 39.244 35.0819 38.2292 33.9222C37.2144 32.9074 35.4748 32.9074 34.4601 33.9222ZM37.0695 36.6766C36.9245 36.8216 36.6346 36.9665 36.3446 36.9665C36.0547 36.9665 35.7648 36.8216 35.6198 36.6766C35.1849 36.2417 35.1849 35.6618 35.6198 35.2269C35.7648 35.0819 36.0547 34.937 36.3446 34.937C36.6346 34.937 36.9245 35.0819 37.0695 35.2269C37.5044 35.6618 37.5044 36.2417 37.0695 36.6766Z" fill="#595959"/>
</svg>
