<svg width="54" height="43" viewBox="0 0 54 43" fill="none" xmlns="http://www.w3.org/2000/svg">
<path d="M25.9406 15.8377C26.3755 16.2726 26.8104 16.4175 27.3903 16.4175C27.9702 16.4175 28.4051 16.2726 28.84 15.8377L31.0145 13.6632C31.3044 13.3732 31.3044 12.7934 31.0145 12.5034C30.7245 12.2135 30.1447 12.2135 29.8547 12.5034L27.6802 14.6779C27.5353 14.8229 27.5353 14.8229 27.3903 14.8229C27.2453 14.8229 27.1004 14.8229 27.1004 14.6779L20.4319 8.00944C19.707 7.42957 19.2721 6.4148 19.2721 5.40003C19.2721 4.38526 19.707 3.37049 20.4319 2.64565C21.8815 1.19598 24.346 1.19598 25.7957 2.64565L26.8104 3.66042C27.1004 3.95036 27.6802 3.95036 27.9702 3.66042L28.9849 2.64565C29.7098 1.92082 30.7245 1.48591 31.7393 1.48591C32.7541 1.48591 33.7689 1.92082 34.4937 2.64565C35.2185 3.37049 35.6534 4.38526 35.6534 5.40003C35.6534 6.4148 35.2185 7.42957 34.4937 8.15441L32.3192 10.039C32.0293 10.3289 32.0293 10.9088 32.3192 11.1987C32.6091 11.4887 33.189 11.4887 33.4789 11.1987L35.3635 9.31415C36.3783 8.29938 36.9581 6.99467 36.9581 5.545C36.9581 4.09532 36.3783 2.79062 35.3635 1.77585C34.3487 0.616111 33.044 0.0362418 31.5943 0.0362418C30.1447 0.0362418 28.84 0.616111 27.8252 1.63088L27.3903 2.06578L26.9554 1.63088C24.7809 -0.543627 21.4466 -0.543627 19.2721 1.63088C18.2574 2.64565 17.6775 3.95036 17.6775 5.40003C17.6775 6.8497 18.2574 8.15441 19.2721 9.16918L25.9406 15.8377Z" fill="#595959"/>
<path d="M52.4698 20.6216H51.455V19.3169C51.455 17.7222 50.1503 16.5625 48.7006 16.5625H47.3959C46.961 16.5625 46.5261 16.7075 46.2362 16.8524V16.7075C46.2362 15.1128 44.9315 13.9531 43.4818 13.9531H40.5825C38.9878 13.9531 37.8281 15.2578 37.8281 16.7075V20.4766C37.3932 20.3316 37.1032 20.3316 36.8133 20.3316H36.0885C35.6536 20.3316 35.3636 20.4766 35.0737 20.6216C34.7838 19.6068 33.769 18.882 32.7542 18.882H32.0294C31.5945 18.882 31.1596 19.0269 30.7247 19.1719C30.2898 18.4471 29.5649 18.0122 28.6951 18.0122H27.9703C27.5354 18.0122 26.9555 18.1571 26.6656 18.4471C26.2307 17.8672 25.5059 17.4323 24.6361 17.4323H23.9112C22.6065 17.4323 21.4468 18.592 21.4468 19.8967V21.9263H16.9528V16.5625C16.9528 14.9678 15.6481 13.8081 14.1984 13.8081H11.2991C9.70442 13.8081 8.54468 15.1128 8.54468 16.5625V16.7075C8.10978 16.5625 7.81985 16.4175 7.38494 16.4175H6.08024C4.4856 16.4175 3.32586 17.7222 3.32586 19.1719V20.4766H2.31109C1.29632 20.4766 0.426514 21.3464 0.426514 22.3612V27.58C0.426514 28.5948 1.29632 29.4646 2.31109 29.4646H3.32586V30.7693C3.32586 32.3639 4.63057 33.5237 6.08024 33.5237H7.38494C7.81985 33.5237 8.25475 33.3787 8.54468 33.2337V34.1035C8.54468 35.6982 9.84939 36.8579 11.2991 36.8579H14.1984C15.793 36.8579 16.9528 35.5532 16.9528 34.1035V28.0149H17.0978C17.2427 28.3048 17.3877 28.5948 17.5327 28.8847L20.287 32.9438C21.1568 34.1035 21.4468 35.5532 21.4468 37.0029V42.0767C21.4468 42.5116 21.7367 42.8016 22.1716 42.8016C22.6065 42.8016 22.8964 42.5116 22.8964 42.0767V37.1478C22.8964 35.4082 22.3166 33.6686 21.4468 32.219L18.6924 28.1599H21.3018V28.4498C21.3018 28.8847 21.5917 29.1746 22.0266 29.1746C22.4615 29.1746 22.7515 28.8847 22.7515 28.4498V20.1867C22.7515 19.7518 23.1864 19.3169 23.6213 19.3169H24.3461C24.781 19.3169 25.2159 19.7518 25.2159 20.1867V20.7665C25.2159 21.2014 25.5059 21.4914 25.9408 21.4914C26.3757 21.4914 26.6656 21.2014 26.6656 20.7665C26.6656 20.3316 27.1005 19.8967 27.5354 19.8967H28.2602C28.6951 19.8967 29.13 20.3316 29.13 20.7665V21.4914C29.13 21.9263 29.42 22.2162 29.8549 22.2162C30.2898 22.2162 30.5797 21.9263 30.5797 21.4914C30.5797 21.0565 31.0146 20.6216 31.4495 20.6216H32.1743C32.6092 20.6216 33.0442 21.0565 33.0442 21.4914V22.7961C33.0442 23.231 33.3341 23.5209 33.769 23.5209C34.2039 23.5209 34.4938 23.231 34.4938 22.7961C34.4938 22.3612 34.9287 21.9263 35.3636 21.9263H36.0885C36.5234 21.9263 36.9583 22.3612 36.9583 22.7961V29.4646C36.9583 29.8995 36.9583 30.1894 36.8133 30.6243L36.3784 32.3639C36.2334 33.0888 35.7985 33.6686 35.3636 34.1035C33.914 35.8431 33.0442 37.8727 33.0442 40.1922V42.0767C33.0442 42.5116 33.3341 42.8016 33.769 42.8016C34.2039 42.8016 34.4938 42.5116 34.4938 42.0767V40.1922C34.4938 38.3076 35.2187 36.568 36.3784 35.1183C36.5234 34.9733 36.6683 34.6834 36.8133 34.5384C36.9583 35.6982 37.8281 36.7129 39.1328 36.8579H39.2777C39.7126 36.8579 40.0026 36.568 40.0026 36.1331C40.0026 35.6982 39.7126 35.2633 39.2777 35.2633C38.6979 35.1183 38.263 34.6834 38.263 34.1035V16.7075C38.263 15.9826 38.8428 15.5477 39.4227 15.5477H42.3221C43.0469 15.5477 43.4818 16.1276 43.4818 16.7075V34.2485C43.4818 34.8284 43.0469 35.4082 42.467 35.4082C42.0321 35.4082 41.7422 35.8431 41.8872 36.278C41.8872 36.7129 42.3221 37.0029 42.757 36.8579C44.0617 36.568 45.0764 35.4082 45.0764 34.1035V33.3787C45.5113 33.5237 45.8013 33.6686 46.2362 33.6686H47.5409C49.1355 33.6686 50.2953 32.3639 50.2953 30.9142V29.6095H51.31C52.3248 29.6095 53.1946 28.7397 53.1946 27.725V22.5061C54.2094 21.4914 53.4845 20.6216 52.4698 20.6216ZM2.31109 28.0149C2.16612 28.0149 2.02115 27.8699 2.02115 27.725V22.5061C2.02115 22.3612 2.16612 22.2162 2.31109 22.2162H3.32586V28.0149H2.31109ZM15.3581 34.1035C15.3581 34.8284 14.7783 35.2633 14.1984 35.2633H11.2991C10.5742 35.2633 10.1393 34.6834 10.1393 34.1035V24.9706C10.1393 24.5357 9.84939 24.2458 9.41448 24.2458C8.97958 24.2458 8.68965 24.5357 8.68965 24.9706V30.9142C8.68965 31.6391 8.10978 32.074 7.52991 32.074H6.08024C5.3554 32.074 4.9205 31.4941 4.9205 30.9142V19.4618C4.9205 18.737 5.50037 18.3021 6.08024 18.3021H7.38494C8.10978 18.3021 8.54468 18.882 8.54468 19.4618V21.6363C8.54468 22.0712 8.83462 22.3612 9.26952 22.3612C9.70442 22.3612 9.99435 22.0712 9.99435 21.6363V16.8524C9.99435 16.1276 10.5742 15.6927 11.1541 15.6927H14.0534C14.7783 15.6927 15.2132 16.2725 15.2132 16.8524V34.1035H15.3581ZM16.9528 26.5652V23.6659H21.4468V26.5652H16.9528ZM49.7154 30.7693C49.7154 31.4941 49.1355 31.929 48.5557 31.929H47.2509C46.5261 31.929 46.0912 31.3491 46.0912 30.7693V19.3169C46.0912 18.592 46.6711 18.1571 47.2509 18.1571H48.5557C49.2805 18.1571 49.7154 18.737 49.7154 19.3169V30.7693ZM52.6147 27.725C52.6147 27.8699 52.4698 28.0149 52.3248 28.0149H51.31V22.2162H52.3248C52.4698 22.2162 52.6147 22.3612 52.6147 22.5061V27.725Z" fill="#595959"/>
</svg>
