<svg width="41" height="55" viewBox="0 0 41 55" fill="none" xmlns="http://www.w3.org/2000/svg">
<path d="M39.7808 19.0994C40.2157 19.0994 40.5056 18.8095 40.5056 18.3746V9.38663C40.5056 8.95173 40.2157 8.66179 39.9257 8.51683L20.935 0.108725C20.6451 -0.0362418 20.3551 -0.0362418 20.0652 0.108725L1.0745 8.51683C0.784563 8.66179 0.494629 8.95173 0.494629 9.38663V25.9129C0.494629 32.0015 2.3792 37.9452 5.85842 43.019C9.33763 48.0929 14.2665 51.862 20.0652 54.0365C20.3551 54.1815 20.6451 54.1815 20.935 54.0365C26.7337 51.862 31.6626 48.0929 35.1418 43.019C38.621 37.9452 40.5056 32.0015 40.5056 25.9129V21.9988C40.5056 21.5639 40.2157 21.2739 39.7808 21.2739C39.3459 21.2739 39.0559 21.5639 39.0559 21.9988V25.9129C39.0559 37.6553 31.6626 48.3828 20.6451 52.4419C9.4826 48.3828 2.08927 37.6553 2.08927 25.9129V9.82153L20.5001 1.70337L38.911 9.82153V18.3746C38.911 18.8095 39.3459 19.0994 39.7808 19.0994Z" fill="white"/>
<path d="M24.559 26.4928C24.8489 26.7827 25.4288 26.7827 25.7187 26.4928L28.3281 23.8834C28.763 23.4485 28.763 22.5787 28.3281 22.1438L26.1536 19.9692C25.7187 19.5343 24.8489 19.5343 24.414 19.9692L18.6153 25.7679L16.0059 23.1585C15.571 22.7236 14.7012 22.7236 14.2663 23.1585L12.0918 25.333C11.6569 25.7679 11.6569 26.6377 12.0918 27.0726L17.7455 32.7264C18.1804 33.1613 19.0502 33.1613 19.4851 32.7264L23.1093 29.1022C23.3993 28.8122 23.3993 28.2324 23.1093 27.9424C22.8194 27.6525 22.2395 27.6525 21.9496 27.9424L18.6153 31.2767L13.3965 26.0579L14.9911 24.6082L17.6006 27.2176C18.0355 27.6525 18.9053 27.6525 19.3402 27.2176L25.1389 21.4189L26.8785 23.1585L24.414 25.623C24.2691 25.623 24.2691 26.2028 24.559 26.4928Z" fill="white"/>
<path d="M20.5 50.8471C20.9349 50.8471 21.2249 50.5571 21.2249 50.1222V38.6698C27.8934 38.2349 33.1122 32.7262 33.1122 25.9127C33.1122 19.0992 27.8934 13.5905 21.2249 13.1556V3.87767C21.2249 3.44277 20.9349 3.15283 20.5 3.15283C20.0651 3.15283 19.7752 3.44277 19.7752 3.87767V13.1556C18.0356 13.3005 16.296 13.7354 14.7013 14.6052C14.2664 14.7502 14.1215 15.3301 14.4114 15.62C14.5564 16.0549 15.1363 16.1999 15.4262 15.91C16.7309 15.1851 18.1806 14.7502 19.7752 14.7502V18.5194C19.7752 18.9543 20.0651 19.2442 20.5 19.2442C20.9349 19.2442 21.2249 18.9543 21.2249 18.5194V14.7502C27.0236 15.1851 31.5176 19.969 31.5176 25.9127C31.5176 31.8564 26.8786 36.6403 21.2249 37.0752V35.1906C21.2249 34.7557 20.9349 34.4658 20.5 34.4658C20.0651 34.4658 19.7752 34.7557 19.7752 35.1906V37.0752C13.9765 36.6403 9.48253 31.8564 9.48253 25.9127C9.48253 23.0133 10.6423 20.259 12.6718 18.0845C12.9617 17.7945 12.9617 17.2147 12.6718 16.9247C12.3819 16.6348 11.802 16.6348 11.5121 16.9247C9.04763 19.3892 7.74292 22.5784 7.74292 25.9127C7.74292 32.7262 12.9617 38.2349 19.6302 38.6698V50.1222C19.7752 50.5571 20.0651 50.8471 20.5 50.8471Z" fill="white"/>
</svg>
