<svg width="51" height="51" viewBox="0 0 51 51" fill="none" xmlns="http://www.w3.org/2000/svg">
<path d="M43.1136 47.4041L46.7378 47.2591C49.0573 47.2591 50.9419 45.3746 50.9419 43.0551V25.3691C50.9419 23.0496 49.0573 21.165 46.7378 21.165H10.9309C7.59665 21.165 4.6973 23.3395 3.8275 26.3839L0.493251 36.8215C0.203317 37.6913 0.0583496 38.4161 0.0583496 39.141V43.2001C0.0583496 45.5195 1.94292 47.4041 4.2624 47.4041H8.61142V47.5491C8.90135 48.5639 9.48122 49.5786 10.351 50.1585C11.2208 50.7384 12.3806 51.0283 13.3953 50.7384C14.99 50.4484 16.2947 49.1437 16.5846 47.5491V47.4041H21.2236V47.5491C21.5135 48.5639 22.0934 49.5786 22.9632 50.1585C23.833 50.7384 24.9927 51.0283 26.0075 50.7384C27.6021 50.4484 28.9068 49.1437 29.1968 47.5491V47.4041H34.7055V47.5491C34.9955 48.5639 35.5753 49.5786 36.4451 50.1585C37.3149 50.7384 38.4747 51.0283 39.4895 50.7384C41.519 50.3035 42.6787 48.9988 43.1136 47.4041ZM44.8532 22.7597H46.5928C48.0425 22.7597 49.2023 23.9194 49.2023 25.3691V30.5879H44.7083V22.7597H44.8532ZM38.9096 22.7597H43.4036V30.5879H38.9096V22.7597ZM32.9659 22.7597H37.4599V30.5879H32.9659V22.7597ZM27.0223 22.7597H31.5163V30.5879H27.0223V22.7597ZM25.4276 22.7597L25.5726 30.5879H25.4276C23.688 30.7329 22.0934 31.6027 20.9336 32.7624L17.4544 36.2416L17.5994 35.8067L20.3538 26.8188C21.0786 24.6443 23.1081 23.0496 25.4276 22.7597ZM14.2651 24.4993C15.4249 23.3395 16.8746 22.7597 18.4692 22.7597H21.6585L21.3685 22.9046C20.7887 23.3395 20.2088 23.9194 19.7739 24.6443H13.9752L14.2651 24.4993ZM6.58188 24.4993C7.74162 23.3395 9.19129 22.7597 10.7859 22.7597H13.9752L13.6853 22.9046C13.1054 23.3395 12.5255 23.9194 12.0906 24.6443H6.29194L6.58188 24.4993ZM1.65299 38.1262C1.65299 37.8363 1.79796 37.6913 1.79796 37.4014L5.1322 26.9637C5.27717 26.6738 5.27717 26.3839 5.42214 26.2389H11.5108V26.3839C11.5108 26.5288 11.5108 26.5288 11.3658 26.6738L8.03155 37.1114C7.88658 37.5463 7.74162 37.9812 7.74162 38.4161V38.5611L1.65299 38.1262ZM1.50802 42.1853H3.68253C3.97247 42.1853 4.2624 42.4752 4.2624 42.7652C4.2624 43.0551 3.97247 43.345 3.68253 43.345H1.50802V42.1853ZM15.1349 47.5491C14.7 48.5639 13.6853 49.2887 12.6705 49.2887C11.5108 49.2887 10.496 48.5639 10.2061 47.5491V47.4041H15.2799L15.1349 47.5491ZM4.2624 45.8095C3.53756 45.8095 2.81273 45.5195 2.23286 44.9397L2.08789 44.7947H3.8275C4.98724 44.7947 5.85704 43.9249 5.85704 42.7652C5.85704 41.6054 4.98724 40.7356 3.8275 40.7356H1.50802V39.7208H15.2799V40.7356H13.1054C11.9457 40.7356 11.0759 41.6054 11.0759 42.7652C11.0759 43.9249 11.9457 44.7947 13.1054 44.7947H15.7148C15.8598 45.0846 16.0048 45.3746 16.1497 45.6645L16.2947 45.8095H4.2624ZM15.2799 42.1853V43.2001H13.1054C12.8155 43.2001 12.5255 42.9101 12.5255 42.6202C12.5255 42.3303 12.8155 42.0403 13.1054 42.0403H15.2799V42.1853ZM15.7148 36.8215C15.5698 37.2564 15.4249 37.6913 15.4249 38.1262V38.2712H9.19129V38.1262C9.19129 37.8363 9.33626 37.5463 9.33626 37.4014L12.6705 26.9637C12.8155 26.6738 12.8155 26.3839 12.9604 26.2389H19.0491V26.3839C19.0491 26.5288 19.0491 26.5288 18.9041 26.6738L15.7148 36.8215ZM25.4276 49.2887C23.978 49.2887 22.8182 48.129 22.8182 46.6793C22.8182 45.2296 23.978 44.0699 25.4276 44.0699C26.8773 44.0699 28.037 45.2296 28.037 46.6793C28.037 48.129 26.8773 49.2887 25.4276 49.2887ZM39.0545 49.2887C37.6049 49.2887 36.4451 48.129 36.4451 46.6793C36.4451 45.2296 37.6049 44.0699 39.0545 44.0699C40.5042 44.0699 41.664 45.2296 41.664 46.6793C41.664 48.129 40.5042 49.2887 39.0545 49.2887ZM38.1847 42.4752C36.5901 42.7652 35.2854 44.0699 34.9955 45.6645V45.8095H29.4867V45.6645C29.0518 43.49 26.8773 42.0403 24.5578 42.4752C22.9632 42.7652 21.6585 44.0699 21.3685 45.6645V45.8095H19.484C18.0343 45.8095 16.8746 44.6497 16.8746 43.2001V39.141V38.996L21.9484 33.9222C23.1081 32.7624 24.5578 32.1826 26.1525 32.1826H49.3472V43.345C49.3472 44.7947 48.1875 45.9544 46.7378 45.9544H43.1136V45.8095C42.6787 43.49 40.3593 42.0403 38.1847 42.4752Z" fill="#595959"/>
<path d="M25.4277 45.8096C24.9928 45.8096 24.7029 46.0995 24.7029 46.5344C24.7029 46.9693 24.9928 47.2592 25.4277 47.2592C25.8626 47.2592 26.1526 46.9693 26.1526 46.5344C26.1526 46.0995 25.8626 45.8096 25.4277 45.8096Z" fill="#595959"/>
<path d="M39.0544 45.8096C38.6195 45.8096 38.3296 46.0995 38.3296 46.5344C38.3296 46.9693 38.6195 47.2592 39.0544 47.2592C39.4893 47.2592 39.7793 46.9693 39.7793 46.5344C39.7793 46.0995 39.4893 45.8096 39.0544 45.8096Z" fill="#595959"/>
<path d="M33.8358 40.7358H30.6465V42.1855H33.8358V40.7358Z" fill="#595959"/>
<path d="M33.8358 43.3452H30.6465V44.7949H33.8358V43.3452Z" fill="#595959"/>
<path d="M47.4627 40.7358H44.2734V42.1855H47.4627V40.7358Z" fill="#595959"/>
<path d="M47.4627 43.3452H44.2734V44.7949H47.4627V43.3452Z" fill="#595959"/>
<path d="M25.4275 0C21.2234 0 17.8892 3.33425 17.8892 7.5383C17.8892 9.27791 19.0489 11.7423 21.3684 14.9316C22.3831 16.3813 23.5429 17.831 24.8476 19.1357C25.1375 19.4256 25.5724 19.4256 25.8624 19.1357C27.0221 17.831 28.1818 16.3813 29.3416 14.9316C31.6611 11.7423 32.8208 9.27791 32.8208 7.5383C32.9658 3.33425 29.6315 0 25.4275 0ZM25.5724 17.3961H25.4275C24.7026 16.6712 23.6879 15.3665 22.6731 14.0618C20.6435 11.1625 19.4838 8.98797 19.4838 7.5383C19.4838 4.20405 22.2382 1.44967 25.5724 1.44967C28.9067 1.44967 31.6611 4.20405 31.6611 7.5383C31.5161 10.4376 26.4422 16.2363 25.5724 17.3961Z" fill="#595959"/>
<path d="M25.4277 3.33447C23.1082 3.33447 21.2236 5.21905 21.2236 7.53852C21.2236 9.858 23.1082 11.7426 25.4277 11.7426C27.7472 11.7426 29.6317 9.858 29.6317 7.53852C29.6317 5.21905 27.7472 3.33447 25.4277 3.33447ZM25.4277 10.1479C23.978 10.1479 22.8183 8.9882 22.8183 7.53852C22.8183 6.08885 23.978 4.92911 25.4277 4.92911C26.8774 4.92911 28.0371 6.08885 28.0371 7.53852C28.0371 8.9882 26.8774 10.1479 25.4277 10.1479Z" fill="#595959"/>
</svg>
