<svg width="75" height="75" viewBox="0 0 75 75" fill="none" xmlns="http://www.w3.org/2000/svg">
<circle cx="37.5" cy="37.5" r="37" fill="white" stroke="#2A2E3B"/>
<path d="M51.1824 52.0747H24.8176C24.5157 52.0747 24.3145 51.8734 24.3145 51.5714V40.2982C24.3145 39.9962 24.5157 39.7949 24.8176 39.7949C25.1195 39.7949 25.3207 39.9962 25.3207 40.2982V51.0681H50.6792V40.2982C50.6792 39.9962 50.8805 39.7949 51.1824 39.7949C51.4843 39.7949 51.6855 39.9962 51.6855 40.2982V51.5714C51.6855 51.8734 51.4843 52.0747 51.1824 52.0747Z" fill="#2A2E3B"/>
<path d="M39.61 33.2522C39.3081 33.2522 39.1068 33.0509 39.1068 32.749V26.2065H36.893V32.749C36.893 33.0509 36.6918 33.2522 36.3899 33.2522C36.088 33.2522 35.8867 33.0509 35.8867 32.749V26.2065C35.8867 25.7032 36.2892 25.2 36.893 25.2H39.2075C39.7106 25.2 40.2138 25.6026 40.2138 26.2065V32.749C40.1131 33.0509 39.9119 33.2522 39.61 33.2522Z" fill="#2A2E3B"/>
<path d="M37.9998 24.7975C36.9936 24.7975 36.0879 23.9922 36.0879 22.885C36.0879 22.0798 37.1948 19.9661 37.4967 19.2615C37.698 18.9595 37.9998 18.9595 38.2011 19.0602C38.3017 19.0602 38.3017 19.1609 38.4024 19.2615C38.7042 19.8654 39.8112 22.0798 39.8112 22.885C39.9118 23.9922 39.0061 24.7975 37.9998 24.7975ZM37.9998 20.6707C37.5973 21.3752 37.2954 22.0798 37.0942 22.885C37.0942 23.3883 37.4967 23.7909 37.9998 23.7909C38.503 23.7909 38.9055 23.3883 38.9055 22.885C38.7042 22.1805 38.4024 21.3752 37.9998 20.6707Z" fill="#2A2E3B"/>
<path d="M38.0002 26.2067C37.6983 26.2067 37.4971 26.0054 37.4971 25.7034V24.2943C37.4971 23.9923 37.6983 23.791 38.0002 23.791C38.3021 23.791 38.5034 23.9923 38.5034 24.2943V25.7034C38.5034 26.0054 38.3021 26.2067 38.0002 26.2067Z" fill="#2A2E3B"/>
<path d="M43.0313 40.8014C42.025 40.8014 41.0187 40.3988 40.2137 39.7949C39.0061 38.6877 37.0942 38.6877 35.786 39.7949C34.1759 41.204 31.7608 41.204 30.1508 39.7949C28.9432 38.6877 27.0313 38.6877 25.7231 39.7949C25.3206 40.1975 24.7168 40.4994 24.2137 40.7008C23.8111 40.8014 23.308 40.8014 23.0061 40.4994C22.6036 40.1975 22.4023 39.7949 22.4023 39.3923V35.1648C22.4023 33.5543 23.7105 32.3465 25.3206 32.2458H50.6791C52.2891 32.2458 53.5973 33.5543 53.5973 35.1648V39.3923C53.5973 39.7949 53.3961 40.2981 52.9935 40.4994C52.591 40.8014 52.1885 40.8014 51.786 40.7008C51.1822 40.4994 50.6791 40.1975 50.2766 39.7949C49.069 38.6877 47.1571 38.6877 45.8489 39.7949C45.0439 40.3988 44.0376 40.8014 43.0313 40.8014ZM37.9998 37.8825C39.0061 37.8825 40.0124 38.2851 40.8174 38.889C42.025 39.9962 43.9369 39.9962 45.2451 38.889C46.8552 37.4798 49.2703 37.4798 50.8803 38.889C51.2829 39.1909 51.6854 39.3923 52.0879 39.5936C52.1885 39.5936 52.2891 39.5936 52.3898 39.4929C52.4904 39.3923 52.4904 39.2916 52.4904 39.1909V35.1648C52.4904 34.1583 51.6854 33.353 50.6791 33.353H25.3206C24.3143 33.353 23.5093 34.1583 23.5093 35.1648V39.3923C23.5093 39.4929 23.6099 39.5936 23.6099 39.6942C23.7105 39.7949 23.8111 39.7949 23.9118 39.7949C24.3143 39.5936 24.7168 39.3923 25.1193 39.0903C25.9244 38.3857 26.9306 38.0838 27.9369 38.0838C28.9432 38.0838 29.9495 38.4864 30.7545 39.0903C31.9621 40.1975 33.874 40.1975 35.1822 39.0903C35.9873 38.2851 36.9935 37.8825 37.9998 37.8825Z" fill="#2A2E3B"/>
<path d="M51.1823 47.1426C50.0754 47.1426 49.0691 46.8406 48.2641 46.136C46.9559 45.0288 44.9433 45.0288 43.6351 46.136C41.9244 47.5452 39.5093 47.5452 37.7986 46.136C36.4905 45.0288 34.4779 45.0288 33.1697 46.136C32.3647 46.8406 31.2578 47.1426 30.2515 47.1426C29.1446 47.1426 28.1383 46.8406 27.3332 46.136C26.7295 45.5321 25.8238 45.2301 25.0188 45.3308C24.7169 45.3308 24.5156 45.1295 24.5156 44.8275C24.5156 44.5256 24.7169 44.3243 25.0188 44.3243C26.1257 44.3243 27.132 44.6262 27.937 45.3308C29.2452 46.438 31.2578 46.438 32.5659 45.3308C34.2766 43.9216 36.6917 43.9216 38.4024 45.3308C39.7106 46.438 41.7232 46.438 43.0313 45.3308C44.742 43.9216 47.1571 43.9216 48.8678 45.3308C49.4716 45.9347 50.3773 46.2367 51.1823 46.136C51.4842 46.136 51.6854 46.3373 51.6854 46.6393C51.6854 46.9412 51.4842 47.1426 51.1823 47.1426Z" fill="#2A2E3B"/>
<path d="M53.4969 55.2956H22.5031C22.2013 55.2956 22 55.0943 22 54.7923V52.6786C22 51.7727 22.7044 51.0681 23.6101 51.0681H52.3899C53.2956 51.0681 54 51.7727 54 52.6786V54.7923C54 55.0943 53.6981 55.2956 53.4969 55.2956ZM23.0063 54.289H52.8931V52.6786C52.8931 52.3766 52.6918 52.1753 52.3899 52.1753H23.6101C23.3082 52.1753 23.1069 52.3766 23.1069 52.6786V54.289H23.0063Z" fill="#2A2E3B"/>
</svg>
