<svg width="75" height="75" viewBox="0 0 75 75" fill="none" xmlns="http://www.w3.org/2000/svg">
<circle cx="37.5" cy="37.5" r="37" fill="white" stroke="#2A2E3B"/>
<g clip-path="url(#clip0)">
<path d="M48.4627 47.3709C48.6676 47.1645 48.7701 46.855 48.8725 46.5454L49.9996 41.0761C50.102 40.3537 49.9996 39.6314 49.4873 39.1154L46.516 35.6068V35.4004C46.8233 32.3046 46.516 29.1056 45.6963 26.6289C44.1594 21.6756 40.8807 18.167 39.0365 16.5159C38.6266 16.1031 38.0119 15.8967 37.4996 15.8967C36.9873 15.8967 36.3725 16.1031 35.9627 16.5159C34.1184 18.167 30.8397 21.6756 29.3028 26.6289C28.4832 29.1056 28.1758 32.4078 28.4832 35.4004V35.5036L25.5119 38.909C24.9996 39.425 24.8971 40.1473 24.9996 40.8697L26.1266 46.339C26.2291 46.855 26.6389 47.2677 27.0488 47.4741C27.561 47.6805 28.0733 47.5773 28.4832 47.2677L31.6594 44.8943L31.7619 44.9975C31.7619 45.1007 31.8643 45.1007 31.8643 45.2039C32.2742 45.823 32.9914 46.1326 33.7086 46.1326H41.1881C41.8029 46.1326 42.4176 45.9262 42.8274 45.5134C42.9299 45.4102 43.0324 45.3071 43.0324 45.2039L43.2373 44.8943L43.3397 44.9975L46.4135 47.2677C46.8233 47.5773 47.3356 47.6805 47.8479 47.4741C48.0529 47.5773 48.2578 47.4741 48.4627 47.3709ZM30.8397 43.8623L27.6635 46.1326L26.6389 40.7665C26.6389 40.5601 26.6389 40.3537 26.7414 40.1473L28.7906 37.7739V37.9803C29.2004 40.0442 29.9176 42.0048 30.8397 43.7591V43.8623ZM43.1348 42.108C42.725 42.9336 42.2127 43.7591 41.7004 44.4815C41.5979 44.6879 41.393 44.7911 41.1881 44.7911H33.811C33.6061 44.7911 33.4012 44.6879 33.2988 44.4815C32.7865 43.7591 32.2742 42.9336 31.8643 42.108L31.7619 42.0048H43.2373L43.1348 42.108ZM43.852 40.3537H31.1471V40.2505C30.6348 38.7026 30.3274 37.0515 30.1225 35.2972C29.8151 32.4078 30.1225 29.4152 30.8397 27.1449C32.2742 22.6043 35.3479 19.3021 37.0897 17.7542C37.3971 17.5478 37.7045 17.5478 38.0119 17.7542C39.7537 19.3021 42.8274 22.6043 44.2619 27.1449C44.9791 29.4152 45.2865 32.4078 44.9791 35.2972C44.7742 37.0515 44.4668 38.7026 43.852 40.3537ZM47.3356 46.1326L47.2332 46.0294L44.1594 43.7591V43.6559C45.0815 41.9016 45.7988 40.0442 46.2086 37.8771V37.6707L48.2578 40.0442C48.3602 40.2505 48.4627 40.4569 48.3602 40.6633L47.3356 46.1326Z" fill="#2A2E3B"/>
<path d="M40.5733 25.4939C39.7536 24.6683 38.6265 24.1523 37.4995 24.1523C36.3724 24.1523 35.2454 24.5651 34.4257 25.4939C33.606 26.3194 33.0938 27.4546 33.0938 28.5897C33.0938 29.7248 33.5036 30.86 34.4257 31.6855C35.2454 32.5111 36.3724 33.027 37.4995 33.027C38.6265 33.027 39.7536 32.6143 40.5733 31.6855C41.3929 30.86 41.9052 29.7248 41.9052 28.5897C41.9052 27.4546 41.3929 26.3194 40.5733 25.4939ZM37.4995 31.3759C36.7823 31.3759 36.0651 31.0663 35.5528 30.5504C35.0405 30.0344 34.7331 29.312 34.7331 28.5897C34.7331 27.8673 35.0405 27.145 35.5528 26.629C36.0651 26.113 36.7823 25.8034 37.4995 25.8034C38.2167 25.8034 38.9339 26.113 39.4462 26.629C39.9585 27.145 40.2659 27.8673 40.2659 28.5897C40.2659 30.1376 39.0364 31.3759 37.4995 31.3759Z" fill="#2A2E3B"/>
<path d="M34.528 49.2284C34.528 48.8156 34.2206 48.4028 33.7083 48.4028C33.196 48.4028 32.8887 48.7124 32.8887 49.2284V53.3561C32.8887 53.7689 33.196 54.1817 33.7083 54.1817C33.9133 54.1817 34.1182 54.0785 34.2206 53.9753C34.3231 53.8721 34.4256 53.6657 34.4256 53.4593V49.2284H34.528Z" fill="#2A2E3B"/>
<path d="M36.6797 49.2285V57.2776C36.6797 57.6904 36.9871 58.1032 37.4994 58.1032C37.7043 58.1032 37.9092 58 38.0117 57.8968C38.1141 57.7936 38.2166 57.5872 38.2166 57.3808V49.3317C38.2166 48.9189 37.9092 48.5061 37.3969 48.5061C36.8846 48.5061 36.6797 48.7125 36.6797 49.2285Z" fill="#2A2E3B"/>
<path d="M41.2904 48.4028C40.8805 48.4028 40.4707 48.7124 40.4707 49.2284V53.3561C40.4707 53.7689 40.7781 54.1817 41.2904 54.1817C41.4953 54.1817 41.7002 54.0785 41.8027 53.9753C41.9051 53.8721 42.0076 53.6657 42.0076 53.4593V49.3316C42.11 48.7124 41.7002 48.4028 41.2904 48.4028Z" fill="#2A2E3B"/>
</g>
<defs>
<clipPath id="clip0">
<rect width="25" height="42" fill="white" transform="translate(25 16)"/>
</clipPath>
</defs>
</svg>
