<svg width="75" height="75" viewBox="0 0 75 75" fill="none" xmlns="http://www.w3.org/2000/svg">
<circle cx="37.5" cy="37.5" r="37" fill="white" stroke="#2A2E3B"/>
<path d="M48.8919 27C48.6541 27 48.2973 27.2381 48.2973 27.5952C48.2973 27.9524 48.5351 28.1905 48.8919 28.1905C53.6486 28.1905 57.573 32.119 57.573 36.881C57.573 41.6429 53.6486 45.5714 48.8919 45.5714H24.9892C20.2324 45.5714 16.3081 41.6429 16.3081 36.881C16.3081 32.119 20.2324 28.1905 24.9892 28.1905H45.9189C46.2757 28.1905 46.5135 27.9524 46.5135 27.5952C46.5135 27.2381 46.2757 27 45.9189 27H24.9892C19.5189 27 15 31.5238 15 37C15 42.4762 19.5189 47 24.9892 47H48.8919C54.3622 47 58.8811 42.4762 58.8811 37C58.8811 31.5238 54.4811 27 48.8919 27Z" fill="#2A2E3B"/>
<path d="M27.9622 44.5001H48.8919C52.9351 44.5001 56.2649 41.1668 56.2649 37.1191C56.2649 33.0715 53.0541 29.6191 48.8919 29.6191H24.9892C20.9459 29.6191 17.6162 32.9525 17.6162 37.0001C17.6162 41.0477 20.9459 44.381 24.9892 44.381C25.3459 44.381 25.5838 44.143 25.5838 43.7858C25.5838 43.4287 25.3459 43.1906 24.9892 43.1906C21.6595 43.1906 18.8054 40.4525 18.8054 37.0001C18.8054 33.5477 21.5405 30.8096 24.9892 30.8096H48.8919C52.2216 30.8096 55.0757 33.5477 55.0757 37.0001C55.0757 40.4525 52.3405 43.1906 48.8919 43.1906H27.9622C27.6054 43.1906 27.3676 43.4287 27.3676 43.7858C27.3676 44.143 27.6054 44.5001 27.9622 44.5001Z" fill="#2A2E3B"/>
<path d="M34.9779 40.2143L35.3347 39.1429H37.9509L38.3077 40.2143C38.4266 40.5714 38.7833 40.6905 39.1401 40.5714C39.4968 40.4524 39.6158 40.0952 39.4968 39.7381L37.3563 34.0238C37.1185 33.4286 36.1671 33.4286 35.9293 34.0238L33.7887 39.7381C33.6698 40.0952 33.7887 40.4524 34.1455 40.5714C34.5022 40.6905 34.859 40.4524 34.9779 40.2143ZM36.7617 35.6905L37.5941 37.8333H35.9293L36.7617 35.6905Z" fill="#2A2E3B"/>
<path d="M25.7032 39.2618C25.1086 39.2618 24.5141 39.0237 24.1573 38.5475C23.9195 38.4285 23.5627 38.3094 23.3249 38.5475C23.087 38.7856 23.087 39.1428 23.3249 39.4999C23.9195 40.2142 24.8708 40.5713 25.8222 40.5713C27.0113 40.5713 27.9627 39.8571 28.2005 38.7856C28.3195 37.9523 27.9627 36.9999 26.5357 36.4047C25.7032 36.1666 25.1086 35.9285 24.8708 35.8094C24.7519 35.6904 24.633 35.5713 24.7519 35.3333C24.7519 35.2142 24.8708 34.9761 25.2276 34.738C26.06 34.4999 26.8924 35.2142 26.8924 35.2142C27.1303 35.4523 27.6059 35.4523 27.8438 35.0952C28.0816 34.8571 27.9627 34.3809 27.7249 34.1428C27.7249 34.1428 26.4168 33.0713 24.8708 33.5475C24.0384 33.7856 23.5627 34.3809 23.4438 35.0952C23.3249 35.8094 23.5627 36.5237 24.1573 36.8809C24.1573 36.8809 24.1573 36.8809 24.2762 36.8809C24.2762 36.8809 25.1086 37.238 26.06 37.5952C26.2978 37.7142 26.8924 38.0713 26.8924 38.5475C26.7735 38.9047 26.4168 39.2618 25.7032 39.2618Z" fill="#2A2E3B"/>
<path d="M31.4108 40.5714C31.7676 40.5714 32.0054 40.3333 32.0054 39.9762V34.7381H32.9568C33.3135 34.7381 33.5514 34.5 33.5514 34.1428C33.5514 33.7857 33.3135 33.5476 32.9568 33.5476H29.746C29.3892 33.5476 29.1514 33.7857 29.1514 34.1428C29.1514 34.5 29.3892 34.7381 29.746 34.7381H30.6973V39.9762C30.6973 40.3333 31.0541 40.5714 31.4108 40.5714Z" fill="#2A2E3B"/>
<path d="M45.443 35.5713C45.443 34.3808 44.4916 33.4285 43.1835 33.4285H41.6376C41.2808 33.4285 41.043 33.6666 41.043 34.0237V39.857C41.043 40.2142 41.2808 40.4523 41.6376 40.4523C41.9943 40.4523 42.2322 40.2142 42.2322 39.857V38.0713L44.2538 40.3332C44.4916 40.5713 44.8484 40.5713 45.2051 40.3332C45.443 40.0951 45.443 39.738 45.2051 39.3808L43.7781 37.7142C44.7295 37.4761 45.443 36.6428 45.443 35.5713ZM43.1835 36.5237C42.9457 36.5237 42.5889 36.5237 42.2322 36.5237V34.738H43.1835C43.6592 34.738 44.1349 35.0951 44.1349 35.5713C44.1349 36.0475 43.7781 36.5237 43.1835 36.5237Z" fill="#2A2E3B"/>
<path d="M48.654 40.5714C49.0107 40.5714 49.2486 40.3333 49.2486 39.9762V34.7381H50.1999C50.5567 34.7381 50.7945 34.5 50.7945 34.1428C50.7945 33.7857 50.5567 33.5476 50.1999 33.5476H46.9891C46.6324 33.5476 46.3945 33.7857 46.3945 34.1428C46.3945 34.5 46.6324 34.7381 46.9891 34.7381H47.9405V39.9762C47.9405 40.3333 48.2972 40.5714 48.654 40.5714Z" fill="#2A2E3B"/>
</svg>
