<svg width="75" height="75" viewBox="0 0 75 75" fill="none" xmlns="http://www.w3.org/2000/svg">
<circle cx="37.5" cy="37.5" r="37" fill="white" stroke="#2A2E3B"/>
<g clip-path="url(#clip0)">
<path d="M24.6758 23.1721C23.3095 23.1721 22.1533 24.3353 22.1533 25.7099C22.1533 27.1902 23.3095 28.3534 24.7809 28.3534C26.2524 28.3534 27.4086 27.1902 27.4086 25.7099C27.3035 24.3353 26.1473 23.1721 24.6758 23.1721ZM24.6758 27.0845C23.9401 27.0845 23.3095 26.4501 23.3095 25.7099C23.3095 24.9697 23.9401 24.441 24.6758 24.441C25.4116 24.441 26.0422 25.0754 26.0422 25.7099C26.0422 26.4501 25.4116 27.0845 24.6758 27.0845Z" fill="#2A2E3B"/>
<path d="M50.5315 55H53.4745C53.7898 55 54.1051 54.6828 54.1051 54.3656V42.3112C54.1051 41.994 53.7898 41.6767 53.4745 41.6767H51.3724V41.571C51.7928 40.3021 52.003 38.9275 52.003 37.4471C52.003 29.7281 45.8018 23.4894 38.1291 23.4894C35.3964 23.4894 32.7688 24.2296 30.5616 25.71L30.4565 25.8157V25.71C30.4565 22.5378 27.9339 20 24.7808 20C21.5225 20 19 22.5378 19 25.71C19 28.4592 20.3664 30.2568 21.7327 32.1601C21.8378 32.3716 23.3093 34.0634 23.3093 34.0634C23.6246 34.3807 23.9399 34.5921 24.3604 34.6979C24.1502 35.6495 24.045 36.4955 24.045 37.4471C24.045 45.1662 30.2462 51.4048 37.9189 51.4048C38.8649 51.4048 39.7057 51.2991 40.5465 51.1934H40.6517V54.3656C40.6517 54.6828 40.967 55 41.2823 55H44.2252C44.5405 55 44.8559 54.6828 44.8559 54.3656C44.8559 54.0483 44.5405 53.7311 44.2252 53.7311H41.9129V42.9456H44.4354V47.281C44.4354 47.4924 44.5405 47.7039 44.7508 47.8097C44.961 47.9154 45.1712 47.9154 45.3814 47.8097L47.1682 46.6465L48.955 47.8097C49.1652 47.9154 49.3754 47.9154 49.5856 47.8097C49.7958 47.7039 49.9009 47.4924 49.9009 47.281V42.9456H50.1111H52.4234V53.7311H50.5315C50.2162 53.7311 49.9009 54.0483 49.9009 54.3656C49.9009 54.6828 50.1111 55 50.5315 55ZM29.9309 28.4592C30.036 28.142 30.1411 27.9305 30.1411 27.6133C31.2973 26.6616 32.5586 26.0272 34.03 25.4985L34.2402 25.3927L34.1351 25.4985C33.6096 26.1329 33.0841 26.8731 32.6637 27.719C32.4535 28.142 32.2432 28.565 32.033 29.0937C31.1922 28.9879 30.5616 28.7764 29.9309 28.4592ZM29.3003 29.6224C30.036 29.9396 30.7718 30.1511 31.5075 30.3625C30.8769 32.2659 30.5616 34.4864 30.4565 36.7069H25.4114V36.6012C25.4114 35.7553 25.6216 34.9094 25.8318 34.0634C25.9369 33.9577 25.9369 33.9577 26.042 33.852C26.042 33.852 27.5135 32.1601 27.6186 31.9486C28.2492 31.3142 28.8799 30.574 29.3003 29.6224ZM24.6757 33.429C24.5706 33.429 24.4655 33.3233 24.2553 33.2175C24.1502 33.1118 22.8889 31.5257 22.6787 31.4199C21.4174 29.6224 20.2613 28.0363 20.2613 25.71C20.2613 23.2779 22.2583 21.2689 24.6757 21.2689C27.0931 21.2689 29.0901 23.2779 29.0901 25.71C29.0901 28.0363 27.9339 29.5166 26.5676 31.4199C26.4625 31.6314 25.0961 33.2175 24.991 33.2175C24.991 33.429 24.7808 33.429 24.6757 33.429ZM28.4595 45.9063C26.5676 43.6858 25.5165 41.148 25.4114 38.2931V38.1873H30.5616C30.6667 40.4079 30.982 42.6284 31.6126 44.5317C30.4565 44.9547 29.4054 45.3776 28.4595 45.9063ZM34.03 49.6073C32.3483 49.0786 30.7718 48.1269 29.4054 46.858L29.3003 46.7523H29.4054C30.1411 46.435 30.982 46.1178 31.8228 45.9063C32.033 46.3293 32.2432 46.858 32.4535 47.281C33.0841 48.1269 33.6096 48.8671 34.03 49.6073L34.2402 49.713L34.03 49.6073ZM37.3934 50.136C36.027 49.8187 34.7658 48.5499 33.7147 46.6465C33.5045 46.3293 33.3994 46.0121 33.1892 45.5891V45.4834H33.2943C34.5556 45.1662 35.9219 45.0604 37.3934 45.0604H37.4985V50.136H37.3934ZM37.3934 43.7915C35.8168 43.7915 34.2402 44.003 32.8739 44.3202C32.3483 42.5227 31.9279 40.4079 31.9279 38.1873V38.0816H37.4985V43.7915H37.3934ZM37.3934 36.9184H31.8228V36.8127C31.9279 34.6979 32.2432 32.5831 32.7688 30.6798C34.2402 30.997 35.7117 31.2085 37.2883 31.2085V36.9184H37.3934ZM37.3934 29.9396C35.9219 29.9396 34.5556 29.7281 33.2943 29.5166H33.1892V29.4109C33.2943 29.0937 33.5045 28.6707 33.7147 28.3535C34.7658 26.3444 35.9219 25.1813 37.2883 24.864H37.3934V29.9396ZM42.018 25.4985C43.6997 26.0272 45.2763 26.9789 46.6426 28.2477L46.7477 28.3535H46.6426C45.9069 28.6707 45.0661 28.9879 44.2252 29.1994C44.015 28.7764 43.8048 28.2477 43.5946 27.8248C43.0691 26.9789 42.5435 26.2387 42.018 25.4985L41.8078 25.3927L42.018 25.4985ZM38.6547 24.864C40.021 25.1813 41.2823 26.4502 42.3333 28.3535C42.5435 28.6707 42.6487 28.9879 42.8589 29.4109V29.5166H42.7538C41.4925 29.8338 40.1261 29.9396 38.6547 29.9396H38.5496V24.864H38.6547ZM40.7568 49.9245C40.021 50.0302 39.3904 50.136 38.7598 50.2417H38.6547V45.0604H38.7598C39.3904 45.0604 40.1261 45.1662 40.7568 45.1662V49.9245ZM44.2252 38.1873C44.2252 39.3505 44.1201 40.5136 43.9099 41.571H41.3874C41.0721 41.571 40.7568 41.8882 40.7568 42.2054V43.7915H40.6517C40.021 43.6858 39.2853 43.6858 38.6547 43.6858V38.0816L44.2252 38.1873ZM38.6547 36.9184V31.3142C40.2312 31.3142 41.7027 31.1027 43.1742 30.7855C43.6997 32.5831 44.1201 34.6979 44.1201 36.9184V37.0242H38.6547V36.9184ZM48.955 46.2236L47.7988 45.4834C47.5886 45.3776 47.3784 45.3776 47.1682 45.4834L46.012 46.2236V43.0514H49.0601V46.2236H48.955ZM50.6366 38.1873C50.5315 39.3505 50.3213 40.5136 50.006 41.571H45.2763V41.4653C45.4865 40.4079 45.5916 39.2447 45.5916 38.0816L50.6366 38.1873ZM45.5916 36.9184C45.4865 34.5921 45.1712 32.3716 44.5405 30.4683C45.5916 30.1511 46.6426 29.7281 47.4835 29.3051C49.2703 31.4199 50.3213 34.0634 50.5315 36.9184V37.0242H45.5916V36.9184Z" fill="#2A2E3B"/>
<path d="M48.0093 54.3656C48.0093 54.0484 47.694 53.7312 47.3787 53.7312C47.0634 53.7312 46.748 54.0484 46.748 54.3656C46.748 54.6829 47.0634 55.0001 47.3787 55.0001C47.7991 55.0001 48.0093 54.7886 48.0093 54.3656Z" fill="#2A2E3B"/>
</g>
<defs>
<clipPath id="clip0">
<rect width="35" height="35" fill="white" transform="translate(19 20)"/>
</clipPath>
</defs>
</svg>
