<svg width="75" height="75" viewBox="0 0 75 75" fill="none" xmlns="http://www.w3.org/2000/svg">
<circle cx="37.5" cy="37.5" r="37" fill="white" stroke="#2A2E3B"/>
<path d="M44.9201 56H42.1429V54.8685H44.4058V51.4742H40.4972C40.1886 51.4742 39.9829 51.2685 39.9829 50.96V44.1714H41.1143V50.3428H45.0229C45.3315 50.3428 45.5372 50.5485 45.5372 50.8571V55.3828C45.4343 55.7942 45.2286 56 44.9201 56Z" fill="#2A2E3B"/>
<path d="M40.9088 55.9999H29.0802C28.7716 55.9999 28.5659 55.7942 28.5659 55.4856V50.9599C28.5659 50.6513 28.7716 50.4456 29.0802 50.4456H32.9888V44.2742H34.1202V51.0627C34.1202 51.3713 33.9145 51.577 33.6059 51.577H29.6973V54.9713H41.0116V55.9999H40.9088Z" fill="#2A2E3B"/>
<path d="M34.2227 35.2229H33.0913V32.96H28.5655C28.3598 32.96 28.1541 32.8572 28.0513 32.6514C27.9484 32.4457 27.9484 32.24 28.0513 32.0343L32.577 24.7314L33.5027 25.3486L29.4913 31.8286H33.5027C33.8113 31.8286 34.017 32.0343 34.017 32.3429V35.2229H34.2227Z" fill="#2A2E3B"/>
<path d="M40.9083 35.2229H39.7769V21.1314H36.1769L34.2226 24.2171L33.2969 23.6L35.354 20.2057C35.4569 20.1029 35.6626 20 35.8683 20H40.394C40.7026 20 40.9083 20.2057 40.9083 20.5143V35.2229Z" fill="#2A2E3B"/>
<path d="M54.6914 45.5086C53.1486 44.6858 51.6057 43.8629 49.96 43.2458L51.2971 39.5429C51.4 39.2343 51.2971 38.9258 50.9886 38.8229C43.7886 36.1486 35.9714 35.6343 28.36 37.1772L28.5657 38.3086C35.7657 36.7658 43.1714 37.2801 50.0629 39.6458L48.52 43.8629C41.0114 41.1886 32.8857 41.1886 25.3771 43.8629L23.8343 39.6458C25.0686 39.2343 26.3029 38.8229 27.5371 38.5143L27.3314 37.4858C25.8914 37.8972 24.3486 38.3086 23.0114 38.8229C22.7029 38.9258 22.6 39.2343 22.7029 39.5429L24.04 43.2458C22.3943 43.8629 20.8514 44.5829 19.3086 45.5086C19.1029 45.6115 19 45.8172 19 46.0229C19 46.2286 19.1029 46.4343 19.3086 46.5372C20.2343 46.9486 21.16 47.3601 22.0857 47.7715C21.88 48.5943 21.6743 49.4172 21.5714 50.2401C21.5714 50.4458 21.6743 50.6515 21.7771 50.7543C21.88 50.8572 21.9829 50.8572 22.0857 50.8572C22.1886 50.8572 22.2914 50.8572 22.3943 50.7543C24.9657 49.3143 27.7429 48.1829 30.7257 47.5658C30.9314 47.5658 31.1371 47.4629 31.3429 47.4629C31.5486 47.4629 31.7543 47.2572 31.7543 46.9486C31.8571 45.7143 32.0629 44.4801 32.2686 43.2458C35.4571 42.7315 38.7486 42.7315 42.04 43.2458C42.2457 44.4801 42.4514 45.7143 42.5543 46.9486C42.5543 47.1543 42.76 47.3601 42.9657 47.4629C43.0686 47.4629 43.0686 47.4629 43.1714 47.4629C44.7143 47.7715 46.1543 48.1829 47.5943 48.8001L48.0057 47.7715C47.08 47.4629 46.0514 47.1543 45.1257 46.8458C46.4629 46.1258 47.8 45.6115 49.24 45.0972C49.3429 44.9943 49.4457 44.8915 49.5486 44.7886L49.7543 44.2743C50.9886 44.7886 52.12 45.3029 53.3543 45.9201C52.6343 46.2286 51.9143 46.6401 51.1943 47.0515C50.9886 47.1543 50.8857 47.4629 50.8857 47.6686C50.9886 48.1829 51.1943 48.8001 51.2971 49.3143C50.5771 49.0058 49.8571 48.5943 49.1371 48.2858L48.7257 49.3143C49.7543 49.7258 50.7829 50.2401 51.8114 50.8572C51.9143 50.8572 52.0171 50.9601 52.12 50.9601C52.2229 50.9601 52.3257 50.9601 52.4286 50.8572C52.6343 50.7543 52.7371 50.5486 52.6343 50.3429C52.5314 49.5201 52.3257 48.6972 52.12 47.8743C52.9429 47.3601 53.8686 46.9486 54.7943 46.5372C55 46.4343 55.1029 46.2286 55.1029 46.0229C55 45.8172 54.8971 45.6115 54.6914 45.5086ZM22.8057 49.3143C22.9086 48.8001 23.1143 48.1829 23.2171 47.6686C23.32 47.4629 23.2171 47.1543 22.9086 47.0515C22.1886 46.6401 21.4686 46.3315 20.7486 45.9201C21.88 45.3029 23.1143 44.7886 24.3486 44.2743L24.5543 44.7886C24.6571 44.8915 24.76 44.9943 24.8629 45.0972C24.8629 45.0972 24.8629 45.0972 24.9657 45.0972C26.4057 45.6115 27.7429 46.2286 29.08 46.8458C26.8171 47.5658 24.76 48.2858 22.8057 49.3143ZM30.6229 46.5372C29.3886 45.8172 28.1543 45.2001 26.8171 44.6858C28.1543 44.2743 29.5943 43.8629 31.0343 43.6572C30.8286 44.5829 30.7257 45.6115 30.6229 46.5372ZM47.2857 44.6858C45.9486 45.2001 44.7143 45.8172 43.48 46.5372C43.3771 45.6115 43.2743 44.5829 43.0686 43.6572C44.5086 43.8629 45.8457 44.2743 47.2857 44.6858Z" fill="#2A2E3B"/>
<path d="M23.5256 27.9199C23.3199 27.9199 23.1142 27.8171 23.0113 27.6113L22.0856 25.9656L20.4399 25.0399C20.2342 24.9371 20.1313 24.7313 20.1313 24.5256C20.1313 24.3199 20.2342 24.1142 20.4399 24.0113L22.0856 23.0856L23.0113 21.4399C23.1142 21.2342 23.3199 21.1313 23.5256 21.1313C23.7313 21.1313 23.9371 21.2342 24.0399 21.4399L24.8628 23.0856L26.5085 24.0113C26.7142 24.1142 26.8171 24.3199 26.8171 24.5256C26.8171 24.7313 26.7142 24.9371 26.5085 25.0399L24.8628 25.9656L23.9371 27.6113C23.8342 27.8171 23.7313 27.9199 23.5256 27.9199ZM21.8799 24.5256L22.8056 25.0399C22.9085 25.0399 22.9085 25.1428 23.0113 25.2456L23.5256 26.1713L24.0399 25.2456C24.0399 25.1428 24.1428 25.0399 24.2456 25.0399L25.1713 24.5256L24.2456 24.0113C24.1428 23.9085 24.0399 23.9085 24.0399 23.8056L23.5256 22.8799L23.0113 23.8056C22.9085 23.9085 22.9085 23.9085 22.8056 24.0113L21.8799 24.5256Z" fill="#2A2E3B"/>
<path d="M50.4744 36.8686C50.2686 36.8686 50.0629 36.7658 49.9601 36.5601L49.0344 34.9144L47.3887 33.9887C47.1829 33.8858 47.0801 33.6801 47.0801 33.4744C47.0801 33.2686 47.1829 33.0629 47.3887 32.9601L49.0344 32.0344L49.9601 30.3886C50.0629 30.1829 50.2686 30.0801 50.4744 30.0801C50.6801 30.0801 50.8858 30.1829 50.9886 30.3886L51.9144 32.0344L53.5601 32.9601C53.7658 33.0629 53.8686 33.2686 53.8686 33.4744C53.8686 33.6801 53.7658 33.8858 53.5601 33.9887L51.9144 34.9144L50.9886 36.5601C50.8858 36.7658 50.6801 36.8686 50.4744 36.8686ZM48.8286 33.4744L49.7544 33.9887C49.8572 34.0915 49.9601 34.0915 49.9601 34.1944L50.4744 35.1201L50.9886 34.1944C51.0915 34.0915 51.0915 33.9887 51.1944 33.9887L52.1201 33.4744L51.1944 32.9601C51.0915 32.8572 50.9886 32.8572 50.9886 32.7544L50.4744 31.8286L49.9601 32.7544C49.8572 32.8572 49.8572 32.9601 49.7544 32.9601L48.8286 33.4744Z" fill="#2A2E3B"/>
</svg>
