<svg width="75" height="75" viewBox="0 0 75 75" fill="none" xmlns="http://www.w3.org/2000/svg">
<circle cx="37.5" cy="37.5" r="37" fill="white" stroke="#2A2E3B"/>
<path d="M40.6572 54.9607H41.7097V56.0001H40.6572V54.9607Z" fill="#2A2E3B"/>
<path d="M50.321 25.2913H48.6944V23.1181C49.2685 22.8346 49.7469 22.2677 49.7469 21.6063C49.7469 20.7559 49.0772 20 48.1204 20H26.784C25.9228 20 25.1574 20.7559 25.1574 21.6063C25.1574 22.2677 25.6358 22.8346 26.2099 23.1181V25.2913H24.679C23.2438 25.2913 22 26.4252 22 27.937V34.2677C22 36.5354 23.6265 38.2362 26.6883 38.9921L29.2716 39.6535C29.3673 39.748 29.463 39.8425 29.5586 39.937C30.9938 41.3543 32.8117 42.3937 34.821 42.8661V44.9449C34.821 46.3622 33.5772 47.5906 32.142 47.5906H30.037V52.8819H28.9846V56H39.7006V54.9606H30.1327V53.9213H44.963V54.9606H42.858V56H46.0154V52.8819H44.963V47.5906H42.858C41.4228 47.5906 40.179 46.3622 40.179 44.9449V42.8661C42.1883 42.3937 43.9105 41.3543 45.4414 39.937C45.537 39.8425 45.6327 39.748 45.7284 39.6535L48.3117 38.9921C51.2778 38.2362 53 36.5354 53 34.2677V27.937C53 26.4252 51.7562 25.2913 50.321 25.2913ZM26.784 21.0394H48.1204C48.4074 21.0394 48.6944 21.3228 48.6944 21.6063C48.6944 21.8898 48.4074 22.1732 48.1204 22.1732H26.784C26.4969 22.0787 26.3056 21.8898 26.3056 21.6063C26.3056 21.3228 26.4969 21.0394 26.784 21.0394ZM43.9105 48.6299V52.8819H31.0895V48.6299H43.9105ZM40.179 47.5906H34.7253C35.3951 46.9291 35.8735 45.9843 35.8735 44.9449V43.1496C36.4475 43.2441 36.9259 43.2441 37.5 43.2441C38.0741 43.2441 38.5525 43.2441 39.1265 43.1496V44.9449C39.1265 45.9843 39.5093 46.9291 40.179 47.5906ZM37.5 42.1102C34.821 42.1102 32.2377 41.0709 30.3241 39.1811C28.4105 37.2913 27.358 34.7402 27.358 32.0945V29.4488H26.3056V32.0945C26.3056 34.2677 26.9753 36.4409 28.2191 38.2362L26.9753 37.9528C23.8179 37.1024 23.0525 35.4961 23.0525 34.2677V27.937C23.0525 27.0866 23.8179 26.3307 24.679 26.3307H26.3056V28.4094H27.358V23.1181H47.642V32.0945C47.642 34.7402 46.5895 37.2913 44.6759 39.1811C42.7623 41.0709 40.179 42.1102 37.5 42.1102ZM51.8519 34.2677C51.8519 36.4409 49.7469 37.4803 47.929 37.9528L46.6852 38.2362C47.929 36.4409 48.5988 34.2677 48.5988 32.0945V26.3307H50.2253C51.0864 26.3307 51.8519 27.0866 51.8519 27.937V34.2677Z" fill="#2A2E3B"/>
<path d="M37.978 29.3542H35.873V30.3936H36.9255V34.6456H35.873V35.685H39.0305V34.6456H37.978V29.3542Z" fill="#2A2E3B"/>
<path d="M37.5003 26.1418C33.9602 26.1418 31.0898 28.9765 31.0898 32.4726C31.0898 35.9686 33.9602 38.8033 37.5003 38.8033C41.0405 38.8033 43.9108 35.9686 43.9108 32.4726C43.9108 28.9765 41.0405 26.1418 37.5003 26.1418ZM37.5003 37.7639C34.5343 37.7639 32.1423 35.4017 32.1423 32.4726C32.1423 29.5434 34.5343 27.1812 37.5003 27.1812C40.4664 27.1812 42.8584 29.5434 42.8584 32.4726C42.8584 35.4017 40.4664 37.7639 37.5003 37.7639Z" fill="#2A2E3B"/>
<path d="M45.5371 24.252H46.5896V25.2913H45.5371V24.252Z" fill="#2A2E3B"/>
<path d="M45.5371 26.3308H46.5896V27.3702H45.5371V26.3308Z" fill="#2A2E3B"/>
<path d="M34.8213 50.2363H40.1793V51.2757H34.8213V50.2363Z" fill="#2A2E3B"/>
</svg>
