<svg width="1808" height="410" viewBox="0 0 1808 410" fill="none" xmlns="http://www.w3.org/2000/svg">
<path fill-rule="evenodd" clip-rule="evenodd" d="M1383.85 194.3V31.9892C1383.85 17.6049 1374.25 4.98978 1360.38 1.15654C1346.51 -2.6703 1331.8 3.22059 1324.41 15.5601L1145.17 315.015L965.928 15.5665C958.537 3.22059 943.839 -2.6703 929.955 1.15654C916.089 4.98978 906.487 17.6049 906.487 31.9892V377.302C906.487 394.968 920.807 409.295 938.474 409.295C956.14 409.295 970.46 394.968 970.46 377.302V147.717L1117.58 393.5C1117.62 393.577 1117.67 393.654 1117.71 393.724C1118.37 394.833 1119.12 395.885 1119.92 396.91C1120.12 397.167 1120.33 397.423 1120.54 397.673C1121.17 398.43 1121.83 399.16 1122.54 399.865C1122.64 399.961 1122.73 400.058 1122.82 400.155C1122.96 400.299 1123.1 400.443 1123.24 400.577C1124.13 401.41 1125.07 402.218 1126.07 402.961C1126.31 403.141 1126.57 403.295 1126.82 403.468L1126.97 403.575C1127.55 403.976 1128.12 404.379 1128.73 404.743C1128.85 404.82 1128.99 404.872 1129.12 404.942C1129.9 405.391 1130.7 405.776 1131.5 406.154C1131.67 406.233 1131.83 406.314 1132 406.396C1132.33 406.559 1132.65 406.722 1132.99 406.859C1133.56 407.095 1134.15 407.285 1134.74 407.477C1134.89 407.525 1135.03 407.573 1135.18 407.622C1135.3 407.659 1135.41 407.698 1135.53 407.738C1135.61 407.768 1135.7 407.798 1135.79 407.829C1136.19 407.97 1136.6 408.111 1137.01 408.218C1137.43 408.329 1137.86 408.407 1138.29 408.484L1138.29 408.484L1138.5 408.522C1138.56 408.533 1138.63 408.545 1138.69 408.557C1138.77 408.572 1138.85 408.587 1138.92 408.602C1139.08 408.634 1139.25 408.667 1139.41 408.701L1139.58 408.738L1139.58 408.739C1140.08 408.845 1140.57 408.95 1141.07 409.013C1141.69 409.094 1142.31 409.122 1142.94 409.15L1142.94 409.15L1142.94 409.15L1143.16 409.16C1143.29 409.166 1143.43 409.172 1143.56 409.179C1143.61 409.182 1143.65 409.184 1143.7 409.187C1143.76 409.191 1143.81 409.195 1143.87 409.2L1143.99 409.209L1144.06 409.215L1144.18 409.226L1144.18 409.227C1144.49 409.254 1144.81 409.282 1145.12 409.282H1145.15H1145.18C1145.22 409.282 1145.26 409.281 1145.3 409.28C1145.34 409.28 1145.37 409.279 1145.4 409.278C1145.47 409.275 1145.53 409.272 1145.59 409.268C1145.77 409.257 1145.94 409.242 1146.12 409.226C1146.33 409.208 1146.54 409.189 1146.74 409.179C1146.95 409.168 1147.15 409.159 1147.36 409.15L1147.37 409.15C1147.99 409.122 1148.61 409.094 1149.23 409.013C1149.72 408.952 1150.2 408.847 1150.69 408.741C1150.93 408.691 1151.16 408.641 1151.39 408.596C1151.6 408.554 1151.81 408.516 1152.02 408.477C1152.45 408.4 1152.87 408.323 1153.29 408.211C1153.91 408.045 1154.51 407.814 1155.12 407.609C1155.2 407.583 1155.28 407.558 1155.35 407.532L1155.63 407.441L1155.63 407.44C1156.2 407.257 1156.76 407.074 1157.31 406.852C1157.63 406.72 1157.95 406.564 1158.26 406.408L1158.26 406.408L1158.27 406.406C1158.44 406.321 1158.61 406.235 1158.79 406.154C1159.6 405.776 1160.4 405.384 1161.18 404.936C1161.21 404.919 1161.24 404.903 1161.27 404.889C1161.3 404.871 1161.34 404.854 1161.37 404.837L1161.38 404.836L1161.42 404.816L1161.45 404.799C1161.48 404.786 1161.51 404.773 1161.53 404.759C1161.55 404.752 1161.56 404.745 1161.57 404.737C1162.22 404.346 1162.83 403.917 1163.44 403.487C1163.7 403.301 1163.98 403.141 1164.24 402.949C1165.24 402.211 1166.17 401.417 1167.05 400.583C1167.22 400.432 1167.37 400.27 1167.53 400.109C1167.61 400.018 1167.7 399.928 1167.79 399.84C1168.47 399.147 1169.13 398.442 1169.74 397.699L1169.84 397.579L1169.91 397.495L1169.97 397.413L1170.1 397.262L1170.21 397.115C1170.28 397.039 1170.34 396.962 1170.4 396.885C1171.17 395.898 1171.88 394.878 1172.52 393.821C1172.54 393.789 1172.56 393.757 1172.59 393.724L1172.62 393.667C1172.65 393.622 1172.67 393.583 1172.7 393.539L1319.84 147.711V194.293C1319.84 211.959 1334.16 226.286 1351.83 226.286C1369.52 226.286 1383.85 211.966 1383.85 194.3ZM1803.16 360.866L1596.48 15.5597C1590.69 5.9125 1580.27 0.00237723 1569.03 0.00237723C1557.78 0.00237723 1547.36 5.9125 1541.58 15.5661L1334.89 360.872C1325.82 376.026 1330.75 395.673 1345.91 404.75C1361.08 413.82 1380.72 408.891 1389.79 393.724L1569.03 94.2759L1748.27 393.731C1754.27 403.743 1764.88 409.294 1775.75 409.294C1781.34 409.294 1787.01 407.826 1792.15 404.75C1807.3 395.673 1812.24 376.032 1803.16 360.866ZM238.68 0.00164247C249.93 0.00164247 260.353 5.91176 266.129 15.5654L472.816 360.865C481.887 376.025 476.957 395.666 461.797 404.742C456.656 407.819 450.99 409.287 445.4 409.287C434.522 409.287 423.913 403.736 417.92 393.724L238.68 94.2751L59.441 393.724C50.3643 408.89 30.7301 413.819 15.5638 404.749C0.403844 395.672 -4.52553 376.025 4.54478 360.872L211.232 15.5654C217.014 5.91176 227.431 0.00164247 238.68 0.00164247ZM593.037 0.00237723H407.688C390.022 0.00237723 375.702 14.3226 375.702 31.9888V118.077C375.702 135.743 390.022 150.063 407.688 150.063C425.355 150.063 439.675 135.743 439.675 118.077V63.9817H593.037C631.702 63.9817 663.163 95.4361 663.163 134.108C663.163 172.55 632.081 203.857 593.722 204.228C593.319 204.216 592.928 204.209 592.569 204.209H503.795C503.734 204.209 503.672 204.214 503.609 204.219C503.591 204.22 503.574 204.222 503.556 204.223C503.544 204.224 503.533 204.224 503.521 204.225C503.488 204.227 503.456 204.228 503.423 204.228C503.372 204.228 503.327 204.222 503.276 204.222C502.205 204.222 501.141 204.28 500.077 204.389C499.447 204.451 498.821 204.559 498.191 204.668L498.191 204.668L497.949 204.709L497.894 204.719C497.425 204.799 496.95 204.88 496.488 204.985C495.75 205.145 495.02 205.325 494.295 205.543C493.925 205.65 493.559 205.779 493.193 205.908L493.192 205.908L492.999 205.977C492.948 205.994 492.897 206.012 492.847 206.03C491.789 206.395 490.744 206.818 489.712 207.305C489.065 207.607 488.424 207.914 487.795 208.26C487.677 208.327 487.555 208.384 487.433 208.44C487.296 208.504 487.158 208.567 487.026 208.645C486.949 208.69 486.872 208.735 486.794 208.781C486.718 208.826 486.641 208.873 486.565 208.921C486.562 208.921 486.56 208.924 486.558 208.928C486.555 208.934 486.551 208.94 486.547 208.94C486.545 208.94 486.542 208.938 486.539 208.934C486.495 208.961 486.453 208.991 486.413 209.021C486.364 209.057 486.317 209.095 486.27 209.132C486.217 209.174 486.164 209.216 486.11 209.256C486.082 209.276 486.054 209.296 486.025 209.315C486.017 209.32 486.009 209.326 486.001 209.331C484.815 210.087 483.68 210.927 482.603 211.85C482.203 212.188 481.823 212.545 481.441 212.905L481.302 213.036C481.207 213.128 481.107 213.215 481.007 213.302C480.892 213.403 480.777 213.503 480.667 213.613C479.937 214.337 479.251 215.094 478.597 215.882C478.349 216.183 478.123 216.496 477.897 216.808C477.795 216.949 477.694 217.089 477.59 217.228C476.975 218.061 476.398 218.927 475.866 219.818L475.735 220.037L475.735 220.037C475.465 220.487 475.199 220.931 474.956 221.395C474.385 222.484 473.892 223.619 473.45 224.766C473.398 224.902 473.334 225.032 473.271 225.162C473.193 225.322 473.115 225.482 473.059 225.651V225.645C472.475 227.311 472.039 229.01 471.738 230.728C470.475 237.965 471.693 245.67 475.719 252.484C475.725 252.49 475.732 252.497 475.732 252.503C475.744 252.516 475.751 252.529 475.757 252.548C475.764 252.561 475.77 252.567 475.776 252.58C475.776 252.586 475.783 252.586 475.783 252.593L475.802 252.631L560.262 393.737C566.255 403.75 576.864 409.301 587.742 409.301C593.331 409.301 598.998 407.833 604.139 404.756C614.145 398.762 619.696 388.167 619.703 377.295C619.703 371.699 618.241 366.026 615.158 360.872L559.678 268.189H591.78C592.216 268.201 592.639 268.214 593.03 268.214C666.977 268.214 727.136 208.055 727.136 134.115C727.142 60.1677 666.984 0.00237723 593.037 0.00237723ZM782.092 31.9888C782.092 14.3226 796.412 0.00237723 814.078 0.00237723C831.745 0.00237723 846.065 14.3226 846.065 31.9888V377.302C846.065 394.968 831.745 409.294 814.078 409.294C796.412 409.294 782.092 394.968 782.092 377.302V31.9888ZM284.019 286.804H193.342C175.676 286.804 161.355 301.124 161.355 318.797C161.355 336.463 175.676 350.783 193.342 350.783H284.019C301.685 350.783 316.006 336.463 316.006 318.797C316.012 301.13 301.685 286.804 284.019 286.804ZM1523.69 286.804H1614.36C1632.02 286.804 1646.35 301.13 1646.35 318.797C1646.35 336.463 1632.03 350.783 1614.36 350.783H1523.69C1506.02 350.783 1491.7 336.463 1491.7 318.797C1491.7 301.124 1506.02 286.804 1523.69 286.804Z" fill="url(#paint0_linear)"/>
<defs>
<linearGradient id="paint0_linear" x1="903.856" y1="0" x2="903.856" y2="409.301" gradientUnits="userSpaceOnUse">
<stop stop-color="#333847"/>
<stop offset="1" stop-color="#333847" stop-opacity="0"/>
</linearGradient>
</defs>
</svg>
